<svg preserveAspectRatio="none" overflow="visible" style="display: block;" width="19.8129" height="24.3526" viewBox="0 0 19.8129 24.3526" fill="none" xmlns="http://www.w3.org/2000/svg">
<g id="Apple logo">
<path d="M16.5482 12.9506C16.5725 11.0707 17.582 9.29191 19.1836 8.30727C18.1733 6.86427 16.4809 5.94936 14.7202 5.89428C12.8423 5.69716 11.0217 7.018 10.0647 7.018C9.08925 7.018 7.61585 5.91385 6.02925 5.94649C3.96118 6.01331 2.03322 7.1891 1.02706 8.99714C-1.13578 12.7418 0.477506 18.2451 2.54933 21.272C3.58591 22.7542 4.79737 24.4098 6.38254 24.3511C7.93373 24.2867 8.51307 23.3619 10.3855 23.3619C12.2405 23.3619 12.7841 24.3511 14.4014 24.3137C16.0659 24.2867 17.1146 22.825 18.1148 21.3288C18.8596 20.2727 19.4327 19.1054 19.8129 17.8703C17.8568 17.043 16.5505 15.0745 16.5482 12.9506Z" fill="white"/>
<path d="M13.4933 3.90365C14.4009 2.81417 14.848 1.41383 14.7397 0C13.3532 0.145629 12.0724 0.808304 11.1526 1.85599C10.2532 2.87963 9.78508 4.25533 9.87357 5.61512C11.2606 5.6294 12.6242 4.98469 13.4933 3.90365Z" fill="white"/>
</g>
</svg>
