<svg preserveAspectRatio="none" overflow="visible" style="display: block;" width="16.0001" height="22" viewBox="0 0 16.0001 22" fill="none" xmlns="http://www.w3.org/2000/svg">
<g id="Logo">
<path id="signifiant" d="M8.30016 0.13893C8.56162 -0.130169 9.0091 0.0126708 9.0775 0.386977L9.95446 5.18287C9.97548 5.29812 9.93932 5.41634 9.85875 5.49928L7.7279 7.69264C9.59096 5.78104 12.6414 5.63883 14.5355 7.51881C16.467 9.43615 16.4879 12.6031 14.599 14.5481L13.0873 16.1047L7.49645 21.8606C7.23501 22.1298 6.78753 21.9879 6.71911 21.6135L5.84215 16.8176C5.82107 16.7024 5.85728 16.5842 5.93786 16.5012L8.19372 14.179L7.98083 14.385C5.73557 16.4338 2.06745 15.9357 0.514028 12.8909C-0.441423 11.0181 -0.023831 8.70997 1.42907 7.21412L2.94079 5.65748L8.30016 0.13893ZM9.70543 9.13991C8.77464 8.18166 7.26732 8.17779 6.33239 9.12916L6.32555 9.13795L6.32262 9.13991C5.69981 9.71977 5.4095 10.6183 5.65368 11.4456C6.25402 13.4789 8.4513 13.878 9.68102 12.6467L9.69176 12.636C9.69612 12.6317 9.70106 12.6278 9.70543 12.6233C10.6396 11.6615 10.6396 10.1017 9.70543 9.13991Z" fill="#0049D0"/>
</g>
</svg>
