<svg width="180" height="45" viewBox="0 0 180 45" fill="none" xmlns="http://www.w3.org/2000/svg">
<path d="M27.6559 5.58916C28.353 4.87358 28.359 3.70278 27.5803 3.08198C25.0881 1.09493 22.0089 0 18.8196 0C15.0319 -1.54456e-07 11.3994 1.54441 8.72105 4.29349C6.04275 7.04256 4.53809 10.7711 4.53809 14.6589C4.53809 17.9324 5.60483 21.093 7.54073 23.6511C8.14555 24.4503 9.28621 24.4442 9.98337 23.7286L11.2457 22.4329C11.9429 21.7173 11.9246 20.5645 11.3798 19.721C10.4177 18.2313 9.89366 16.4728 9.89366 14.6589C9.89366 12.229 10.8341 9.89868 12.508 8.18051C14.182 6.46234 16.4523 5.49708 18.8196 5.49708C20.5869 5.49708 22.3001 6.03501 23.7515 7.02253C24.5732 7.58167 25.6964 7.60042 26.3935 6.88484L27.6559 5.58916Z" fill="#F4F4F4"/>
<path d="M18.1885 12.7154C18.8856 11.9998 20.0263 11.9937 20.6311 12.7929C22.567 15.351 23.6337 18.5116 23.6337 21.7851C23.6337 25.6729 22.1291 29.4014 19.4508 32.1505C16.7725 34.8996 13.1399 36.444 9.35222 36.444C6.16298 36.444 3.08372 35.349 0.591488 33.362C-0.187141 32.7412 -0.181192 31.5704 0.515969 30.8548L1.77829 29.5591C2.47545 28.8436 3.59859 28.8623 4.42037 29.4214C5.87176 30.409 7.58497 30.9469 9.35222 30.9469C11.7195 30.9469 13.9899 29.9816 15.6638 28.2635C17.3378 26.5453 18.2782 24.215 18.2782 21.7851C18.2782 19.9712 17.7541 18.2127 16.792 16.7229C16.2472 15.8794 16.229 14.7266 16.9261 14.011L18.1885 12.7154Z" fill="#F4F4F4"/>
<path d="M40.1143 27.0983C39.4478 27.0983 38.7655 27.0413 38.0673 26.9273C37.385 26.8296 36.7264 26.683 36.0917 26.4875C35.4728 26.2921 34.9174 26.0477 34.4255 25.7546C34.0764 25.5591 33.8304 25.3067 33.6876 24.9972C33.5448 24.6714 33.4893 24.3457 33.521 24.0199C33.5686 23.6942 33.6876 23.4091 33.878 23.1648C34.0843 22.9042 34.3382 22.7414 34.6397 22.6762C34.9571 22.5948 35.3062 22.6518 35.687 22.8472C36.3376 23.2218 37.0438 23.4987 37.8055 23.6779C38.583 23.8571 39.3526 23.9466 40.1143 23.9466C41.2727 23.9466 42.0979 23.7675 42.5898 23.4091C43.0817 23.0345 43.3277 22.5703 43.3277 22.0166C43.3277 21.5442 43.1531 21.1696 42.804 20.8927C42.4549 20.6158 41.844 20.3796 40.9712 20.1842L38.2815 19.5978C36.7582 19.2721 35.6236 18.7183 34.8778 17.9365C34.1478 17.1384 33.7828 16.096 33.7828 14.8093C33.7828 13.9949 33.9495 13.2538 34.2827 12.586C34.6159 11.9182 35.084 11.34 35.687 10.8514C36.29 10.3627 37.0041 9.98812 37.8293 9.72752C38.6703 9.46692 39.5907 9.33662 40.5904 9.33662C41.479 9.33662 42.3518 9.45063 43.2086 9.67866C44.0655 9.8904 44.8193 10.208 45.4699 10.6315C45.7873 10.8269 46.0015 11.0794 46.1126 11.3889C46.2395 11.682 46.2792 11.9834 46.2316 12.2928C46.1998 12.586 46.0808 12.8466 45.8745 13.0746C45.6841 13.3027 45.4382 13.4492 45.1367 13.5144C44.8352 13.5796 44.4702 13.5063 44.0417 13.2945C43.5181 13.0176 42.9627 12.814 42.3756 12.6837C41.7884 12.5534 41.1854 12.4883 40.5666 12.4883C39.9001 12.4883 39.3288 12.5779 38.8528 12.757C38.3926 12.9362 38.0356 13.1886 37.7817 13.5144C37.5436 13.8402 37.4246 14.2148 37.4246 14.6382C37.4246 15.1106 37.5912 15.4933 37.9245 15.7865C38.2577 16.0797 38.8369 16.3159 39.6621 16.495L42.3518 17.0814C43.9069 17.4234 45.0652 17.9772 45.8269 18.7427C46.5886 19.492 46.9694 20.4855 46.9694 21.7234C46.9694 22.5378 46.8108 23.2788 46.4934 23.9466C46.176 24.5981 45.7158 25.1601 45.1129 25.6324C44.5099 26.1048 43.7878 26.4712 42.9468 26.7318C42.1058 26.9761 41.1616 27.0983 40.1143 27.0983Z" fill="#F4F4F4"/>
<path d="M50.8641 27.025C50.277 27.025 49.8248 26.854 49.5074 26.5119C49.2059 26.1536 49.0551 25.6568 49.0551 25.0216V16.6661C49.0551 16.0146 49.2059 15.5178 49.5074 15.1757C49.8248 14.8174 50.277 14.6382 50.8641 14.6382C51.4354 14.6382 51.8718 14.8174 52.1733 15.1757C52.4907 15.5178 52.6493 16.0146 52.6493 16.6661V25.0216C52.6493 25.6568 52.4986 26.1536 52.1971 26.5119C51.8956 26.854 51.4513 27.025 50.8641 27.025ZM50.8641 12.6349C50.1977 12.6349 49.6819 12.4801 49.317 12.1707C48.9679 11.8449 48.7933 11.3889 48.7933 10.8025C48.7933 10.1999 48.9679 9.74381 49.317 9.43434C49.6819 9.10859 50.1977 8.94571 50.8641 8.94571C51.5306 8.94571 52.0384 9.10859 52.3875 9.43434C52.7366 9.74381 52.9112 10.1999 52.9112 10.8025C52.9112 11.3889 52.7366 11.8449 52.3875 12.1707C52.0384 12.4801 51.5306 12.6349 50.8641 12.6349Z" fill="#F4F4F4"/>
<path d="M57.2332 27.0494C56.6461 27.0494 56.1938 26.8866 55.8764 26.5608C55.5749 26.2351 55.4242 25.7709 55.4242 25.1682V11.2667C55.4242 10.6478 55.5749 10.1836 55.8764 9.87411C56.1938 9.54836 56.6461 9.38548 57.2332 9.38548C57.8044 9.38548 58.2408 9.54836 58.5423 9.87411C58.8597 10.1836 59.0184 10.6478 59.0184 11.2667V19.7933H59.066L62.5174 15.8598C62.8665 15.4526 63.1838 15.1513 63.4694 14.9559C63.7709 14.7441 64.1677 14.6382 64.6596 14.6382C65.1515 14.6382 65.5244 14.7685 65.7783 15.0292C66.0481 15.2898 66.1829 15.6074 66.1829 15.982C66.1988 16.3403 66.0481 16.7068 65.7307 17.0814L62.0889 21.2592V19.8666L66.1353 24.6552C66.4368 25.0298 66.5638 25.4044 66.5162 25.779C66.4844 26.1536 66.3258 26.4631 66.0401 26.7074C65.7545 26.9354 65.3895 27.0494 64.9452 27.0494C64.4057 27.0494 63.9693 26.9436 63.6361 26.7318C63.3187 26.5201 62.9934 26.1943 62.6602 25.7546L59.066 21.6501H59.0184V25.1682C59.0184 26.4224 58.4233 27.0494 57.2332 27.0494Z" fill="#F4F4F4"/>
<path d="M74.1284 27.0983C72.8748 27.0983 71.7798 26.8458 70.8436 26.3409C69.9232 25.836 69.2092 25.1112 68.7014 24.1665C68.1936 23.2218 67.9397 22.1061 67.9397 20.8194C67.9397 19.8584 68.0825 18.9952 68.3681 18.2297C68.6538 17.4642 69.0663 16.8126 69.6059 16.2752C70.1613 15.7214 70.8198 15.306 71.5815 15.0292C72.3432 14.736 73.1921 14.5894 74.1284 14.5894C75.382 14.5894 76.4689 14.8418 77.3893 15.3468C78.3255 15.8517 79.0475 16.5683 79.5553 17.4967C80.079 18.4251 80.3408 19.5327 80.3408 20.8194C80.3408 21.7967 80.1901 22.6681 79.8886 23.4336C79.6029 24.1991 79.1904 24.8587 78.6508 25.4125C78.1113 25.9663 77.4528 26.3898 76.6752 26.683C75.9135 26.9599 75.0646 27.0983 74.1284 27.0983ZM74.1284 24.3375C74.652 24.3375 75.1043 24.2072 75.4851 23.9466C75.8659 23.686 76.1674 23.3033 76.3896 22.7984C76.6117 22.2772 76.7228 21.6175 76.7228 20.8194C76.7228 19.6304 76.4848 18.759 76.0087 18.2052C75.5327 17.6352 74.9059 17.3501 74.1284 17.3501C73.6206 17.3501 73.1683 17.4723 72.7716 17.7166C72.3908 17.9609 72.0893 18.3437 71.8671 18.8649C71.6608 19.3698 71.5577 20.0213 71.5577 20.8194C71.5577 22.0084 71.7957 22.8961 72.2717 23.4824C72.7478 24.0525 73.3667 24.3375 74.1284 24.3375Z" fill="#F4F4F4"/>
<path d="M91.1987 27.0494C90.6592 27.0494 90.2466 26.8947 89.9609 26.5852C89.6753 26.2758 89.5325 25.8441 89.5325 25.2904V11.1445C89.5325 10.5908 89.6833 10.1591 89.9848 9.84968C90.3021 9.54021 90.7306 9.38548 91.2701 9.38548C91.7461 9.38548 92.119 9.48321 92.3888 9.67866C92.6744 9.85782 92.9363 10.1754 93.1743 10.6315L98.6727 20.9416H97.8634L103.362 10.6315C103.6 10.1754 103.854 9.85782 104.123 9.67866C104.409 9.48321 104.782 9.38548 105.242 9.38548C105.782 9.38548 106.194 9.54021 106.48 9.84968C106.781 10.1591 106.932 10.5908 106.932 11.1445V25.2904C106.932 25.8441 106.789 26.2758 106.504 26.5852C106.218 26.8947 105.806 27.0494 105.266 27.0494C104.726 27.0494 104.306 26.8947 104.004 26.5852C103.719 26.2758 103.576 25.8441 103.576 25.2904V15.3956H104.1L99.6724 23.5313C99.482 23.8408 99.2757 24.0769 99.0535 24.2398C98.8472 24.3864 98.5695 24.4597 98.2204 24.4597C97.8713 24.4597 97.5857 24.3783 97.3635 24.2154C97.1414 24.0525 96.943 23.8245 96.7685 23.5313L92.2936 15.3712H92.8649V25.2904C92.8649 25.8441 92.722 26.2758 92.4364 26.5852C92.1666 26.8947 91.7541 27.0494 91.1987 27.0494Z" fill="#F4F4F4"/>
<path d="M115.643 27.0983C114.39 27.0983 113.295 26.8458 112.359 26.3409C111.438 25.836 110.724 25.1112 110.216 24.1665C109.709 23.2218 109.455 22.1061 109.455 20.8194C109.455 19.8584 109.598 18.9952 109.883 18.2297C110.169 17.4642 110.581 16.8126 111.121 16.2752C111.676 15.7214 112.335 15.306 113.096 15.0292C113.858 14.736 114.707 14.5894 115.643 14.5894C116.897 14.5894 117.984 14.8418 118.904 15.3468C119.841 15.8517 120.563 16.5683 121.07 17.4967C121.594 18.4251 121.856 19.5327 121.856 20.8194C121.856 21.7967 121.705 22.6681 121.404 23.4336C121.118 24.1991 120.705 24.8587 120.166 25.4125C119.626 25.9663 118.968 26.3898 118.19 26.683C117.429 26.9599 116.58 27.0983 115.643 27.0983ZM115.643 24.3375C116.167 24.3375 116.619 24.2072 117 23.9466C117.381 23.686 117.682 23.3033 117.905 22.7984C118.127 22.2772 118.238 21.6175 118.238 20.8194C118.238 19.6304 118 18.759 117.524 18.2052C117.048 17.6352 116.421 17.3501 115.643 17.3501C115.136 17.3501 114.683 17.4723 114.287 17.7166C113.906 17.9609 113.604 18.3437 113.382 18.8649C113.176 19.3698 113.073 20.0213 113.073 20.8194C113.073 22.0084 113.311 22.8961 113.787 23.4824C114.263 24.0525 114.882 24.3375 115.643 24.3375Z" fill="#F4F4F4"/>
<path d="M131.255 27.0983C130.318 27.0983 129.485 26.8621 128.755 26.3898C128.041 25.9012 127.565 25.2578 127.327 24.4597L127.589 23.6535V25.1682C127.589 25.7709 127.438 26.2351 127.137 26.5608C126.835 26.8866 126.399 27.0494 125.828 27.0494C125.256 27.0494 124.812 26.8866 124.495 26.5608C124.193 26.2351 124.042 25.7709 124.042 25.1682V11.2667C124.042 10.6478 124.193 10.1836 124.495 9.87411C124.812 9.54836 125.264 9.38548 125.851 9.38548C126.423 9.38548 126.859 9.54836 127.161 9.87411C127.478 10.1836 127.637 10.6478 127.637 11.2667V17.057H127.351C127.605 16.324 128.089 15.7295 128.803 15.2735C129.517 14.8174 130.334 14.5894 131.255 14.5894C132.286 14.5894 133.183 14.8418 133.944 15.3468C134.706 15.8517 135.301 16.5683 135.73 17.4967C136.158 18.4251 136.372 19.5327 136.372 20.8194C136.372 22.1061 136.158 23.2218 135.73 24.1665C135.301 25.1112 134.698 25.836 133.921 26.3409C133.159 26.8458 132.27 27.0983 131.255 27.0983ZM130.184 24.3375C130.691 24.3375 131.136 24.2072 131.516 23.9466C131.913 23.686 132.215 23.3033 132.421 22.7984C132.643 22.2772 132.754 21.6175 132.754 20.8194C132.754 19.6304 132.516 18.759 132.04 18.2052C131.564 17.6352 130.945 17.3501 130.184 17.3501C129.676 17.3501 129.224 17.4723 128.827 17.7166C128.446 17.9609 128.144 18.3437 127.922 18.8649C127.7 19.3698 127.589 20.0213 127.589 20.8194C127.589 22.0084 127.827 22.8961 128.303 23.4824C128.779 24.0525 129.406 24.3375 130.184 24.3375Z" fill="#F4F4F4"/>
<path d="M140.379 27.025C139.792 27.025 139.34 26.854 139.023 26.5119C138.721 26.1536 138.57 25.6568 138.57 25.0216V16.6661C138.57 16.0146 138.721 15.5178 139.023 15.1757C139.34 14.8174 139.792 14.6382 140.379 14.6382C140.951 14.6382 141.387 14.8174 141.689 15.1757C142.006 15.5178 142.165 16.0146 142.165 16.6661V25.0216C142.165 25.6568 142.014 26.1536 141.712 26.5119C141.411 26.854 140.967 27.025 140.379 27.025ZM140.379 12.6349C139.713 12.6349 139.197 12.4801 138.832 12.1707C138.483 11.8449 138.309 11.3889 138.309 10.8025C138.309 10.1999 138.483 9.74381 138.832 9.43434C139.197 9.10859 139.713 8.94571 140.379 8.94571C141.046 8.94571 141.554 9.10859 141.903 9.43434C142.252 9.74381 142.426 10.1999 142.426 10.8025C142.426 11.3889 142.252 11.8449 141.903 12.1707C141.554 12.4801 141.046 12.6349 140.379 12.6349Z" fill="#F4F4F4"/>
<path d="M149.153 27.0983C147.74 27.0983 146.685 26.6993 145.987 25.9012C145.289 25.0868 144.939 23.8815 144.939 22.2853V11.2667C144.939 10.6478 145.09 10.1836 145.392 9.87411C145.709 9.54836 146.161 9.38548 146.748 9.38548C147.32 9.38548 147.756 9.54836 148.058 9.87411C148.375 10.1836 148.534 10.6478 148.534 11.2667V22.1387C148.534 22.8065 148.669 23.3033 148.938 23.629C149.224 23.9385 149.597 24.0932 150.057 24.0932C150.184 24.0932 150.303 24.0851 150.414 24.0688C150.525 24.0525 150.644 24.0444 150.771 24.0444C151.025 24.0118 151.2 24.0932 151.295 24.2887C151.406 24.4678 151.461 24.8343 151.461 25.3881C151.461 25.8767 151.366 26.2513 151.176 26.5119C150.985 26.7563 150.692 26.9191 150.295 27.0006C150.136 27.0169 149.954 27.0331 149.748 27.0494C149.541 27.082 149.343 27.0983 149.153 27.0983Z" fill="#F4F4F4"/>
<path d="M154.675 27.025C154.088 27.025 153.635 26.854 153.318 26.5119C153.017 26.1536 152.866 25.6568 152.866 25.0216V16.6661C152.866 16.0146 153.017 15.5178 153.318 15.1757C153.635 14.8174 154.088 14.6382 154.675 14.6382C155.246 14.6382 155.683 14.8174 155.984 15.1757C156.301 15.5178 156.46 16.0146 156.46 16.6661V25.0216C156.46 25.6568 156.309 26.1536 156.008 26.5119C155.706 26.854 155.262 27.025 154.675 27.025ZM154.675 12.6349C154.008 12.6349 153.493 12.4801 153.128 12.1707C152.779 11.8449 152.604 11.3889 152.604 10.8025C152.604 10.1999 152.779 9.74381 153.128 9.43434C153.493 9.10859 154.008 8.94571 154.675 8.94571C155.341 8.94571 155.849 9.10859 156.198 9.43434C156.547 9.74381 156.722 10.1999 156.722 10.8025C156.722 11.3889 156.547 11.8449 156.198 12.1707C155.849 12.4801 155.341 12.6349 154.675 12.6349Z" fill="#F4F4F4"/>
<path d="M164.971 27.0983C163.876 27.0983 162.956 26.911 162.21 26.5364C161.48 26.1618 160.933 25.6161 160.568 24.8995C160.219 24.1828 160.044 23.2788 160.044 22.1876V17.5945H159.045C158.6 17.5945 158.251 17.4723 157.997 17.228C157.759 16.9837 157.64 16.6498 157.64 16.2263C157.64 15.7702 157.759 15.4282 157.997 15.2002C158.251 14.9559 158.6 14.8337 159.045 14.8337H160.044V12.9769C160.044 12.358 160.203 11.8938 160.52 11.5843C160.838 11.2586 161.282 11.0957 161.853 11.0957C162.44 11.0957 162.885 11.2586 163.186 11.5843C163.488 11.8938 163.638 12.358 163.638 12.9769V14.8337H165.9C166.344 14.8337 166.685 14.9559 166.923 15.2002C167.161 15.4282 167.28 15.7702 167.28 16.2263C167.28 16.6498 167.161 16.9837 166.923 17.228C166.685 17.4723 166.344 17.5945 165.9 17.5945H163.638V22.041C163.638 22.7251 163.789 23.2381 164.091 23.5802C164.408 23.9222 164.908 24.0932 165.59 24.0932C165.828 24.0932 166.05 24.0688 166.257 24.0199C166.463 23.9711 166.653 23.9385 166.828 23.9222C167.05 23.9059 167.233 23.9792 167.375 24.1421C167.518 24.2887 167.59 24.6226 167.59 25.1438C167.59 25.5347 167.526 25.8767 167.399 26.1699C167.272 26.4631 167.05 26.6748 166.733 26.8051C166.526 26.8866 166.241 26.9517 165.876 27.0006C165.527 27.0657 165.225 27.0983 164.971 27.0983Z" fill="#F4F4F4"/>
<path d="M172.257 31.4471C171.844 31.4471 171.503 31.3331 171.233 31.1051C170.964 30.877 170.805 30.5757 170.757 30.2011C170.71 29.8428 170.773 29.46 170.948 29.0528L172.543 25.437V26.9517L168.33 17.0325C168.171 16.6091 168.115 16.2181 168.163 15.8598C168.226 15.4852 168.401 15.192 168.687 14.9803C168.988 14.7523 169.401 14.6382 169.924 14.6382C170.353 14.6382 170.694 14.7441 170.948 14.9559C171.218 15.1513 171.464 15.5341 171.686 16.1041L174.494 23.4336H173.733L176.637 16.0797C176.859 15.5259 177.105 15.1513 177.375 14.9559C177.66 14.7441 178.041 14.6382 178.517 14.6382C178.93 14.6382 179.255 14.7523 179.493 14.9803C179.747 15.192 179.898 15.4771 179.945 15.8354C180.009 16.1937 179.945 16.5846 179.755 17.0081L174.161 30.0301C173.923 30.5839 173.653 30.9585 173.352 31.1539C173.066 31.3494 172.701 31.4471 172.257 31.4471Z" fill="#F4F4F4"/>
<path d="M34.552 43.0125H33.5451L36.4573 34.8718H37.4487L40.3609 43.0125H39.354L36.984 36.1597H36.922L34.552 43.0125ZM34.9238 39.8326H38.9823V40.7071H34.9238V39.8326Z" fill="#F4F4F4"/>
<path d="M43.9979 43.1397C43.4403 43.1397 42.9601 43.0046 42.5573 42.7343C42.1546 42.464 41.8447 42.0917 41.6279 41.6173C41.411 41.143 41.3026 40.6011 41.3026 39.9916C41.3026 39.3715 41.4136 38.8243 41.6356 38.3499C41.8602 37.8729 42.1726 37.5006 42.5728 37.233C42.9756 36.9627 43.4454 36.8275 43.9824 36.8275C44.4007 36.8275 44.7776 36.907 45.1132 37.066C45.4489 37.225 45.7238 37.4476 45.9381 37.7338C46.1524 38.02 46.2853 38.3539 46.337 38.7355H45.423C45.3533 38.4572 45.1984 38.2108 44.9583 37.9962C44.7208 37.7789 44.4007 37.6702 43.9979 37.6702C43.6416 37.6702 43.3292 37.7656 43.0607 37.9564C42.7948 38.1446 42.587 38.4109 42.4373 38.7554C42.2901 39.0972 42.2165 39.4987 42.2165 39.9598C42.2165 40.4315 42.2888 40.8422 42.4334 41.192C42.5805 41.5418 42.7871 41.8134 43.053 42.0069C43.3215 42.2003 43.6365 42.297 43.9979 42.297C44.2354 42.297 44.451 42.2546 44.6446 42.1698C44.8383 42.085 45.0022 41.9631 45.1365 41.8041C45.2707 41.6451 45.3662 41.4544 45.423 41.2318H46.337C46.2853 41.5921 46.1575 41.9168 45.9536 42.2056C45.7522 42.4918 45.485 42.7197 45.152 42.8893C44.8215 43.0563 44.4368 43.1397 43.9979 43.1397Z" fill="#F4F4F4"/>
<path d="M48.696 39.3397V43.0125H47.7821V34.8718H48.696V37.861H48.7735C48.9129 37.5457 49.122 37.2952 49.4008 37.1097C49.6823 36.9216 50.0566 36.8275 50.5239 36.8275C50.9292 36.8275 51.2842 36.911 51.5889 37.0779C51.8935 37.2422 52.1297 37.4953 52.2976 37.8372C52.468 38.1763 52.5532 38.6083 52.5532 39.133V43.0125H51.6392V39.1966C51.6392 38.7116 51.5166 38.3367 51.2713 38.0717C51.0286 37.804 50.6917 37.6702 50.2606 37.6702C49.9611 37.6702 49.6926 37.7351 49.4551 37.865C49.2201 37.9948 49.0342 38.1843 48.8974 38.4334C48.7632 38.6825 48.696 38.9846 48.696 39.3397Z" fill="#F4F4F4"/>
<path d="M56.8282 43.1397C56.255 43.1397 55.7606 43.0099 55.345 42.7502C54.9319 42.4878 54.613 42.1221 54.3884 41.6531C54.1664 41.1814 54.0554 40.6329 54.0554 40.0075C54.0554 39.3821 54.1664 38.8309 54.3884 38.3539C54.613 37.8743 54.9254 37.5006 55.3256 37.233C55.7283 36.9627 56.1982 36.8275 56.7352 36.8275C57.045 36.8275 57.351 36.8805 57.653 36.9865C57.9551 37.0925 58.2301 37.2648 58.4779 37.5033C58.7258 37.7391 58.9233 38.0518 59.0704 38.4414C59.2176 38.8309 59.2912 39.3105 59.2912 39.8803V40.2778H54.706V39.4669H58.3617C58.3617 39.1224 58.2946 38.815 58.1604 38.5447C58.0287 38.2744 57.8402 38.0611 57.5949 37.9047C57.3523 37.7484 57.0657 37.6702 56.7352 37.6702C56.3712 37.6702 56.0562 37.763 55.7903 37.9485C55.527 38.1313 55.3243 38.3698 55.1823 38.6639C55.0403 38.9581 54.9693 39.2734 54.9693 39.61V40.1506C54.9693 40.6117 55.0468 41.0025 55.2017 41.3232C55.3592 41.6412 55.5773 41.8836 55.8561 42.0506C56.135 42.2149 56.459 42.297 56.8282 42.297C57.0683 42.297 57.2851 42.2626 57.4788 42.1937C57.675 42.1221 57.8441 42.0161 57.9861 41.8757C58.1281 41.7326 58.2378 41.555 58.3153 41.343L59.1982 41.5975C59.1053 41.9048 58.9491 42.1751 58.7296 42.4083C58.5102 42.6389 58.2391 42.8191 57.9164 42.9489C57.5937 43.0761 57.2309 43.1397 56.8282 43.1397Z" fill="#F4F4F4"/>
<path d="M63.3774 36.907V37.702H60.2948V36.907H63.3774ZM61.1932 35.4442H62.1072V41.2636C62.1072 41.5285 62.1446 41.7273 62.2195 41.8598C62.2969 41.9896 62.395 42.0771 62.5138 42.1221C62.6351 42.1645 62.7629 42.1857 62.8972 42.1857C62.9979 42.1857 63.0805 42.1804 63.145 42.1698C63.2096 42.1566 63.2612 42.146 63.2999 42.138L63.4858 42.9807C63.4239 43.0046 63.3374 43.0284 63.2264 43.0523C63.1153 43.0788 62.9746 43.092 62.8042 43.092C62.5461 43.092 62.2931 43.0351 62.0452 42.9211C61.7999 42.8072 61.596 42.6336 61.4333 42.4004C61.2733 42.1672 61.1932 41.873 61.1932 41.5179V35.4442Z" fill="#F4F4F4"/>
<path d="M67.2913 43.1397C66.7181 43.1397 66.2237 43.0099 65.8081 42.7502C65.395 42.4878 65.0762 42.1221 64.8515 41.6531C64.6295 41.1814 64.5185 40.6329 64.5185 40.0075C64.5185 39.3821 64.6295 38.8309 64.8515 38.3539C65.0762 37.8743 65.3885 37.5006 65.7887 37.233C66.1915 36.9627 66.6613 36.8275 67.1983 36.8275C67.5082 36.8275 67.8141 36.8805 68.1161 36.9865C68.4182 37.0925 68.6932 37.2648 68.941 37.5033C69.1889 37.7391 69.3864 38.0518 69.5335 38.4414C69.6807 38.8309 69.7543 39.3105 69.7543 39.8803V40.2778H65.1691V39.4669H68.8248C68.8248 39.1224 68.7577 38.815 68.6235 38.5447C68.4918 38.2744 68.3033 38.0611 68.0581 37.9047C67.8154 37.7484 67.5288 37.6702 67.1983 37.6702C66.8343 37.6702 66.5193 37.763 66.2534 37.9485C65.9901 38.1313 65.7874 38.3698 65.6454 38.6639C65.5034 38.9581 65.4324 39.2734 65.4324 39.61V40.1506C65.4324 40.6117 65.5099 41.0025 65.6648 41.3232C65.8223 41.6412 66.0404 41.8836 66.3193 42.0506C66.5981 42.2149 66.9221 42.297 67.2913 42.297C67.5314 42.297 67.7483 42.2626 67.9419 42.1937C68.1381 42.1221 68.3072 42.0161 68.4492 41.8757C68.5912 41.7326 68.7009 41.555 68.7784 41.343L69.6613 41.5975C69.5684 41.9048 69.4122 42.1751 69.1927 42.4083C68.9733 42.6389 68.7022 42.8191 68.3795 42.9489C68.0568 43.0761 67.694 43.1397 67.2913 43.1397Z" fill="#F4F4F4"/>
<path d="M71.0832 43.0125V42.297L74.4601 37.8451V37.7815H71.1916V36.907H75.6374V37.6543L72.3534 42.0744V42.138H75.7458V43.0125H71.0832Z" fill="#F4F4F4"/>
<path d="M80.4388 43.0125V36.907H81.3217V37.861H81.3992C81.5231 37.5351 81.7232 37.282 81.9994 37.1018C82.2757 36.9189 82.6074 36.8275 82.9947 36.8275C83.3871 36.8275 83.7137 36.9189 83.9745 37.1018C84.2378 37.282 84.443 37.5351 84.5902 37.861H84.6522C84.8045 37.5457 85.033 37.2952 85.3376 37.1097C85.6423 36.9216 86.0076 36.8275 86.4336 36.8275C86.9654 36.8275 87.4004 36.9984 87.7386 37.3403C88.0768 37.6795 88.2459 38.2082 88.2459 38.9263V43.0125H87.332V38.9263C87.332 38.4758 87.212 38.1538 86.9719 37.9604C86.7318 37.7669 86.449 37.6702 86.1237 37.6702C85.7055 37.6702 85.3815 37.8001 85.1517 38.0597C84.922 38.3168 84.8071 38.6427 84.8071 39.0376V43.0125H83.8776V38.8309C83.8776 38.4837 83.7679 38.2042 83.5485 37.9922C83.329 37.7775 83.0463 37.6702 82.7004 37.6702C82.4628 37.6702 82.2408 37.7351 82.0343 37.865C81.8303 37.9948 81.6651 38.175 81.5386 38.4056C81.4147 38.6335 81.3527 38.8971 81.3527 39.1966V43.0125H80.4388Z" fill="#F4F4F4"/>
<path d="M91.7765 43.1556C91.3995 43.1556 91.0574 43.0828 90.7502 42.937C90.443 42.7886 90.199 42.5753 90.0183 42.297C89.8376 42.0161 89.7472 41.6769 89.7472 41.2795C89.7472 40.9297 89.8143 40.6461 89.9486 40.4288C90.0828 40.2089 90.2623 40.0366 90.4869 39.9121C90.7115 39.7875 90.9593 39.6948 91.2304 39.6338C91.5041 39.5702 91.779 39.5199 92.0553 39.4828C92.4167 39.4351 92.7098 39.3993 92.9344 39.3755C93.1616 39.349 93.3268 39.3052 93.4301 39.2443C93.5359 39.1833 93.5888 39.0773 93.5888 38.9263V38.8945C93.5888 38.5023 93.4843 38.1975 93.2752 37.9803C93.0686 37.763 92.7549 37.6543 92.3341 37.6543C91.8978 37.6543 91.5557 37.7524 91.3079 37.9485C91.06 38.1446 90.8858 38.3539 90.7851 38.5765L89.9176 38.2585C90.0725 37.8875 90.279 37.5987 90.5372 37.392C90.798 37.1826 91.082 37.0369 91.3892 36.9547C91.699 36.8699 92.0036 36.8275 92.3031 36.8275C92.4942 36.8275 92.7136 36.8514 92.9615 36.8991C93.2119 36.9441 93.4533 37.0382 93.6857 37.1813C93.9206 37.3244 94.1155 37.5404 94.2704 37.8292C94.4253 38.1181 94.5028 38.5049 94.5028 38.9899V43.0125H93.5888V42.1857H93.5424C93.4804 42.3182 93.3771 42.46 93.2326 42.6111C93.088 42.7621 92.8956 42.8906 92.6555 42.9966C92.4154 43.1026 92.1224 43.1556 91.7765 43.1556ZM91.9159 42.3129C92.2773 42.3129 92.582 42.2401 92.8298 42.0943C93.0802 41.9486 93.2687 41.7604 93.3952 41.5299C93.5243 41.2993 93.5888 41.0569 93.5888 40.8025V39.9439C93.5501 39.9916 93.4649 40.0353 93.3332 40.075C93.2042 40.1121 93.0544 40.1453 92.884 40.1744C92.7162 40.2009 92.5523 40.2248 92.3922 40.246C92.2347 40.2645 92.1069 40.2804 92.0088 40.2937C91.7713 40.3255 91.5493 40.3771 91.3427 40.4487C91.1388 40.5176 90.9735 40.6223 90.847 40.7627C90.7231 40.9005 90.6611 41.0887 90.6611 41.3272C90.6611 41.6531 90.7786 41.8995 91.0135 42.0665C91.2511 42.2308 91.5518 42.3129 91.9159 42.3129Z" fill="#F4F4F4"/>
<path d="M97.1939 34.8718V43.0125H96.28V34.8718H97.1939Z" fill="#F4F4F4"/>
<path d="M98.9769 43.0125V36.907H99.8908V43.0125H98.9769ZM99.4416 35.8894C99.2635 35.8894 99.1098 35.8272 98.9808 35.7026C98.8543 35.5781 98.791 35.4283 98.791 35.2534C98.791 35.0785 98.8543 34.9288 98.9808 34.8043C99.1098 34.6797 99.2635 34.6175 99.4416 34.6175C99.6197 34.6175 99.7721 34.6797 99.8986 34.8043C100.028 34.9288 100.092 35.0785 100.092 35.2534C100.092 35.4283 100.028 35.5781 99.8986 35.7026C99.7721 35.8272 99.6197 35.8894 99.4416 35.8894Z" fill="#F4F4F4"/>
<path d="M102.588 39.3397V43.0125H101.674V36.907H102.557V37.861H102.634C102.774 37.551 102.985 37.3019 103.269 37.1137C103.553 36.9229 103.92 36.8275 104.369 36.8275C104.772 36.8275 105.124 36.9123 105.426 37.0819C105.728 37.2489 105.963 37.5033 106.131 37.8451C106.299 38.1843 106.383 38.6136 106.383 39.133V43.0125H105.469V39.1966C105.469 38.7169 105.348 38.3433 105.105 38.0757C104.862 37.8054 104.529 37.6702 104.106 37.6702C103.814 37.6702 103.553 37.7351 103.324 37.865C103.096 37.9948 102.917 38.1843 102.785 38.4334C102.654 38.6825 102.588 38.9846 102.588 39.3397Z" fill="#F4F4F4"/>
<path d="M109.525 41.8995L109.463 42.3288C109.419 42.6309 109.352 42.9542 109.262 43.2987C109.174 43.6432 109.082 43.9678 108.987 44.2726C108.891 44.5773 108.813 44.8198 108.751 45H108.054C108.087 44.8304 108.131 44.6065 108.185 44.3282C108.239 44.05 108.294 43.7386 108.348 43.3941C108.405 43.0523 108.451 42.7025 108.487 42.3447L108.534 41.8995H109.525Z" fill="#F4F4F4"/>
<path d="M114.504 43.0125V36.907H115.387V37.8292H115.449C115.557 37.5271 115.753 37.282 116.037 37.0938C116.321 36.9057 116.641 36.8116 116.998 36.8116C117.065 36.8116 117.149 36.8129 117.249 36.8156C117.35 36.8182 117.426 36.8222 117.478 36.8275V37.7815C117.447 37.7736 117.376 37.7616 117.265 37.7457C117.156 37.7272 117.042 37.7179 116.92 37.7179C116.631 37.7179 116.373 37.7802 116.146 37.9047C115.921 38.0266 115.743 38.1962 115.611 38.4135C115.482 38.6282 115.418 38.8733 115.418 39.1489V43.0125H114.504Z" fill="#F4F4F4"/>
<path d="M120.906 43.1397C120.369 43.1397 119.898 43.0086 119.492 42.7462C119.09 42.4839 118.775 42.1168 118.547 41.6452C118.323 41.1735 118.21 40.6223 118.21 39.9916C118.21 39.3556 118.323 38.8004 118.547 38.3261C118.775 37.8517 119.09 37.4834 119.492 37.221C119.898 36.9587 120.369 36.8275 120.906 36.8275C121.443 36.8275 121.913 36.9587 122.315 37.221C122.721 37.4834 123.036 37.8517 123.26 38.3261C123.488 38.8004 123.601 39.3556 123.601 39.9916C123.601 40.6223 123.488 41.1735 123.26 41.6452C123.036 42.1168 122.721 42.4839 122.315 42.7462C121.913 43.0086 121.443 43.1397 120.906 43.1397ZM120.906 42.297C121.314 42.297 121.649 42.1897 121.913 41.9751C122.176 41.7604 122.371 41.4782 122.497 41.1284C122.624 40.7786 122.687 40.3997 122.687 39.9916C122.687 39.5835 122.624 39.2032 122.497 38.8508C122.371 38.4983 122.176 38.2135 121.913 37.9962C121.649 37.7789 121.314 37.6702 120.906 37.6702C120.498 37.6702 120.162 37.7789 119.899 37.9962C119.636 38.2135 119.441 38.4983 119.314 38.8508C119.188 39.2032 119.124 39.5835 119.124 39.9916C119.124 40.3997 119.188 40.7786 119.314 41.1284C119.441 41.4782 119.636 41.7604 119.899 41.9751C120.162 42.1897 120.498 42.297 120.906 42.297Z" fill="#F4F4F4"/>
<path d="M128.854 40.5163V36.907H129.768V43.0125H128.854V41.979H128.792C128.653 42.2891 128.436 42.5528 128.141 42.7701C127.847 42.9847 127.475 43.092 127.026 43.092C126.654 43.092 126.324 43.0086 126.035 42.8416C125.746 42.672 125.518 42.4176 125.353 42.0784C125.188 41.7366 125.105 41.306 125.105 40.7866V36.907H126.019V40.723C126.019 41.1682 126.141 41.5232 126.383 41.7882C126.629 42.0532 126.941 42.1857 127.32 42.1857C127.548 42.1857 127.779 42.1261 128.014 42.0069C128.251 41.8876 128.45 41.7048 128.61 41.4583C128.773 41.2119 128.854 40.8979 128.854 40.5163Z" fill="#F4F4F4"/>
<path d="M132.465 34.8718V43.0125H131.551V34.8718H132.465Z" fill="#F4F4F4"/>
<path d="M136.742 43.1397C136.169 43.1397 135.674 43.0099 135.259 42.7502C134.846 42.4878 134.527 42.1221 134.302 41.6531C134.08 41.1814 133.969 40.6329 133.969 40.0075C133.969 39.3821 134.08 38.8309 134.302 38.3539C134.527 37.8743 134.839 37.5006 135.239 37.233C135.642 36.9627 136.112 36.8275 136.649 36.8275C136.959 36.8275 137.265 36.8805 137.567 36.9865C137.869 37.0925 138.144 37.2648 138.392 37.5033C138.639 37.7391 138.837 38.0518 138.984 38.4414C139.131 38.8309 139.205 39.3105 139.205 39.8803V40.2778H134.62V39.4669H138.275C138.275 39.1224 138.208 38.815 138.074 38.5447C137.942 38.2744 137.754 38.0611 137.509 37.9047C137.266 37.7484 136.979 37.6702 136.649 37.6702C136.285 37.6702 135.97 37.763 135.704 37.9485C135.441 38.1313 135.238 38.3698 135.096 38.6639C134.954 38.9581 134.883 39.2734 134.883 39.61V40.1506C134.883 40.6117 134.96 41.0025 135.115 41.3232C135.273 41.6412 135.491 41.8836 135.77 42.0506C136.049 42.2149 136.373 42.297 136.742 42.297C136.982 42.297 137.199 42.2626 137.392 42.1937C137.589 42.1221 137.758 42.0161 137.9 41.8757C138.042 41.7326 138.151 41.555 138.229 41.343L139.112 41.5975C139.019 41.9048 138.863 42.1751 138.643 42.4083C138.424 42.6389 138.153 42.8191 137.83 42.9489C137.507 43.0761 137.145 43.1397 136.742 43.1397Z" fill="#F4F4F4"/>
<path d="M140.534 43.0125V42.297L143.911 37.8451V37.7815H140.642V36.907H145.088V37.6543L141.804 42.0744V42.138H145.196V43.0125H140.534Z" fill="#F4F4F4"/>
<path d="M154.103 38.2744L153.282 38.5129C153.23 38.3724 153.154 38.236 153.053 38.1035C152.955 37.9683 152.821 37.857 152.65 37.7696C152.48 37.6821 152.262 37.6384 151.996 37.6384C151.632 37.6384 151.329 37.7245 151.086 37.8968C150.846 38.0664 150.726 38.2823 150.726 38.5447C150.726 38.7779 150.808 38.9621 150.974 39.0972C151.139 39.2324 151.397 39.345 151.748 39.4351L152.631 39.6577C153.163 39.7902 153.559 39.9929 153.82 40.2658C154.081 40.5361 154.211 40.8846 154.211 41.3113C154.211 41.661 154.113 41.9737 153.917 42.2493C153.723 42.5249 153.452 42.7422 153.104 42.9012C152.755 43.0602 152.35 43.1397 151.888 43.1397C151.281 43.1397 150.779 43.0046 150.381 42.7343C149.983 42.464 149.732 42.0691 149.626 41.5498L150.493 41.3272C150.576 41.6557 150.732 41.9022 150.962 42.0665C151.194 42.2308 151.498 42.3129 151.872 42.3129C152.298 42.3129 152.636 42.2202 152.887 42.0347C153.14 41.8465 153.266 41.6213 153.266 41.359C153.266 41.147 153.194 40.9694 153.049 40.8263C152.905 40.6806 152.683 40.5719 152.383 40.5004L151.392 40.2619C150.847 40.1294 150.447 39.924 150.191 39.6458C149.938 39.3649 149.812 39.0137 149.812 38.5924C149.812 38.2479 149.906 37.9432 150.095 37.6782C150.286 37.4132 150.545 37.2051 150.873 37.0541C151.203 36.903 151.578 36.8275 151.996 36.8275C152.585 36.8275 153.047 36.96 153.382 37.225C153.721 37.49 153.961 37.8398 154.103 38.2744Z" fill="#F4F4F4"/>
<path d="M158.19 43.1397C157.617 43.1397 157.122 43.0099 156.707 42.7502C156.294 42.4878 155.975 42.1221 155.75 41.6531C155.528 41.1814 155.417 40.6329 155.417 40.0075C155.417 39.3821 155.528 38.8309 155.75 38.3539C155.975 37.8743 156.287 37.5006 156.687 37.233C157.09 36.9627 157.56 36.8275 158.097 36.8275C158.407 36.8275 158.713 36.8805 159.015 36.9865C159.317 37.0925 159.592 37.2648 159.84 37.5033C160.087 37.7391 160.285 38.0518 160.432 38.4414C160.579 38.8309 160.653 39.3105 160.653 39.8803V40.2778H156.068V39.4669H159.723C159.723 39.1224 159.656 38.815 159.522 38.5447C159.39 38.2744 159.202 38.0611 158.957 37.9047C158.714 37.7484 158.427 37.6702 158.097 37.6702C157.733 37.6702 157.418 37.763 157.152 37.9485C156.889 38.1313 156.686 38.3698 156.544 38.6639C156.402 38.9581 156.331 39.2734 156.331 39.61V40.1506C156.331 40.6117 156.408 41.0025 156.563 41.3232C156.721 41.6412 156.939 41.8836 157.218 42.0506C157.497 42.2149 157.821 42.297 158.19 42.297C158.43 42.297 158.647 42.2626 158.84 42.1937C159.037 42.1221 159.206 42.0161 159.348 41.8757C159.49 41.7326 159.599 41.555 159.677 41.343L160.56 41.5975C160.467 41.9048 160.311 42.1751 160.091 42.4083C159.872 42.6389 159.601 42.8191 159.278 42.9489C158.955 43.0761 158.593 43.1397 158.19 43.1397Z" fill="#F4F4F4"/>
<path d="M162.152 43.0125V36.907H163.035V37.8292H163.097C163.206 37.5271 163.402 37.282 163.686 37.0938C163.97 36.9057 164.29 36.8116 164.646 36.8116C164.713 36.8116 164.797 36.8129 164.898 36.8156C164.999 36.8182 165.075 36.8222 165.126 36.8275V37.7815C165.095 37.7736 165.024 37.7616 164.913 37.7457C164.805 37.7272 164.69 37.7179 164.569 37.7179C164.28 37.7179 164.021 37.7802 163.794 37.9047C163.57 38.0266 163.391 38.1962 163.26 38.4135C163.131 38.6282 163.066 38.8733 163.066 39.1489V43.0125H162.152Z" fill="#F4F4F4"/>
<path d="M168.632 43.1397C168.059 43.1397 167.564 43.0099 167.148 42.7502C166.735 42.4878 166.417 42.1221 166.192 41.6531C165.97 41.1814 165.859 40.6329 165.859 40.0075C165.859 39.3821 165.97 38.8309 166.192 38.3539C166.417 37.8743 166.729 37.5006 167.129 37.233C167.532 36.9627 168.002 36.8275 168.539 36.8275C168.849 36.8275 169.154 36.8805 169.457 36.9865C169.759 37.0925 170.034 37.2648 170.281 37.5033C170.529 37.7391 170.727 38.0518 170.874 38.4414C171.021 38.8309 171.095 39.3105 171.095 39.8803V40.2778H166.509V39.4669H170.165C170.165 39.1224 170.098 38.815 169.964 38.5447C169.832 38.2744 169.644 38.0611 169.398 37.9047C169.156 37.7484 168.869 37.6702 168.539 37.6702C168.175 37.6702 167.86 37.763 167.594 37.9485C167.33 38.1313 167.128 38.3698 166.986 38.6639C166.844 38.9581 166.773 39.2734 166.773 39.61V40.1506C166.773 40.6117 166.85 41.0025 167.005 41.3232C167.163 41.6412 167.381 41.8836 167.66 42.0506C167.938 42.2149 168.262 42.297 168.632 42.297C168.872 42.297 169.089 42.2626 169.282 42.1937C169.478 42.1221 169.648 42.0161 169.79 41.8757C169.932 41.7326 170.041 41.555 170.119 41.343L171.002 41.5975C170.909 41.9048 170.753 42.1751 170.533 42.4083C170.314 42.6389 170.043 42.8191 169.72 42.9489C169.397 43.0761 169.034 43.1397 168.632 43.1397Z" fill="#F4F4F4"/>
<path d="M172.594 43.0125V36.907H173.508V43.0125H172.594ZM173.059 35.8894C172.881 35.8894 172.727 35.8272 172.598 35.7026C172.471 35.5781 172.408 35.4283 172.408 35.2534C172.408 35.0785 172.471 34.9288 172.598 34.8043C172.727 34.6797 172.881 34.6175 173.059 34.6175C173.237 34.6175 173.389 34.6797 173.516 34.8043C173.645 34.9288 173.709 35.0785 173.709 35.2534C173.709 35.4283 173.645 35.5781 173.516 35.7026C173.389 35.8272 173.237 35.8894 173.059 35.8894Z" fill="#F4F4F4"/>
<path d="M176.205 39.3397V43.0125H175.291V36.907H176.174V37.861H176.251C176.391 37.551 176.602 37.3019 176.886 37.1137C177.17 36.9229 177.537 36.8275 177.986 36.8275C178.389 36.8275 178.741 36.9123 179.043 37.0819C179.346 37.2489 179.58 37.5033 179.748 37.8451C179.916 38.1843 180 38.6136 180 39.133V43.0125H179.086V39.1966C179.086 38.7169 178.965 38.3433 178.722 38.0757C178.479 37.8054 178.146 37.6702 177.723 37.6702C177.431 37.6702 177.17 37.7351 176.941 37.865C176.713 37.9948 176.534 38.1843 176.402 38.4334C176.271 38.6825 176.205 38.9846 176.205 39.3397Z" fill="#F4F4F4"/>
<path d="M27.6559 5.58916C28.353 4.87358 28.359 3.70278 27.5803 3.08198C25.0881 1.09493 22.0089 0 18.8196 0C15.0319 -1.54456e-07 11.3994 1.54441 8.72105 4.29349C6.04275 7.04256 4.53809 10.7711 4.53809 14.6589C4.53809 17.9324 5.60483 21.093 7.54073 23.6511C8.14555 24.4503 9.28621 24.4442 9.98337 23.7286L11.2457 22.4329C11.9429 21.7173 11.9246 20.5645 11.3798 19.721C10.4177 18.2313 9.89366 16.4728 9.89366 14.6589C9.89366 12.229 10.8341 9.89868 12.508 8.18051C14.182 6.46234 16.4523 5.49708 18.8196 5.49708C20.5869 5.49708 22.3001 6.03501 23.7515 7.02253C24.5732 7.58167 25.6964 7.60042 26.3935 6.88484L27.6559 5.58916Z" fill="#F4F4F4"/>
<path d="M18.1885 12.7154C18.8856 11.9998 20.0263 11.9937 20.6311 12.7929C22.567 15.351 23.6337 18.5116 23.6337 21.7851C23.6337 25.6729 22.1291 29.4014 19.4508 32.1505C16.7725 34.8996 13.1399 36.444 9.35222 36.444C6.16298 36.444 3.08372 35.349 0.591488 33.362C-0.187141 32.7412 -0.181192 31.5704 0.515969 30.8548L1.77829 29.5591C2.47545 28.8436 3.59859 28.8623 4.42037 29.4214C5.87176 30.409 7.58497 30.9469 9.35222 30.9469C11.7195 30.9469 13.9899 29.9816 15.6638 28.2635C17.3378 26.5453 18.2782 24.215 18.2782 21.7851C18.2782 19.9712 17.7541 18.2127 16.792 16.7229C16.2472 15.8794 16.229 14.7266 16.9261 14.011L18.1885 12.7154Z" fill="#F4F4F4"/>
<path d="M40.1143 27.0983C39.4478 27.0983 38.7655 27.0413 38.0673 26.9273C37.385 26.8296 36.7264 26.683 36.0917 26.4875C35.4728 26.2921 34.9174 26.0477 34.4255 25.7546C34.0764 25.5591 33.8304 25.3067 33.6876 24.9972C33.5448 24.6714 33.4893 24.3457 33.521 24.0199C33.5686 23.6942 33.6876 23.4091 33.878 23.1648C34.0843 22.9042 34.3382 22.7414 34.6397 22.6762C34.9571 22.5948 35.3062 22.6518 35.687 22.8472C36.3376 23.2218 37.0438 23.4987 37.8055 23.6779C38.583 23.8571 39.3526 23.9466 40.1143 23.9466C41.2727 23.9466 42.0979 23.7675 42.5898 23.4091C43.0817 23.0345 43.3277 22.5703 43.3277 22.0166C43.3277 21.5442 43.1531 21.1696 42.804 20.8927C42.4549 20.6158 41.844 20.3796 40.9712 20.1842L38.2815 19.5978C36.7582 19.2721 35.6236 18.7183 34.8778 17.9365C34.1478 17.1384 33.7828 16.096 33.7828 14.8093C33.7828 13.9949 33.9495 13.2538 34.2827 12.586C34.6159 11.9182 35.084 11.34 35.687 10.8514C36.29 10.3627 37.0041 9.98812 37.8293 9.72752C38.6703 9.46692 39.5907 9.33662 40.5904 9.33662C41.479 9.33662 42.3518 9.45063 43.2086 9.67866C44.0655 9.8904 44.8193 10.208 45.4699 10.6315C45.7873 10.8269 46.0015 11.0794 46.1126 11.3889C46.2395 11.682 46.2792 11.9834 46.2316 12.2928C46.1998 12.586 46.0808 12.8466 45.8745 13.0746C45.6841 13.3027 45.4382 13.4492 45.1367 13.5144C44.8352 13.5796 44.4702 13.5063 44.0417 13.2945C43.5181 13.0176 42.9627 12.814 42.3756 12.6837C41.7884 12.5534 41.1854 12.4883 40.5666 12.4883C39.9001 12.4883 39.3288 12.5779 38.8528 12.757C38.3926 12.9362 38.0356 13.1886 37.7817 13.5144C37.5436 13.8402 37.4246 14.2148 37.4246 14.6382C37.4246 15.1106 37.5912 15.4933 37.9245 15.7865C38.2577 16.0797 38.8369 16.3159 39.6621 16.495L42.3518 17.0814C43.9069 17.4234 45.0652 17.9772 45.8269 18.7427C46.5886 19.492 46.9694 20.4855 46.9694 21.7234C46.9694 22.5378 46.8108 23.2788 46.4934 23.9466C46.176 24.5981 45.7158 25.1601 45.1129 25.6324C44.5099 26.1048 43.7878 26.4712 42.9468 26.7318C42.1058 26.9761 41.1616 27.0983 40.1143 27.0983Z" fill="#F4F4F4"/>
<path d="M50.8641 27.025C50.277 27.025 49.8248 26.854 49.5074 26.5119C49.2059 26.1536 49.0551 25.6568 49.0551 25.0216V16.6661C49.0551 16.0146 49.2059 15.5178 49.5074 15.1757C49.8248 14.8174 50.277 14.6382 50.8641 14.6382C51.4354 14.6382 51.8718 14.8174 52.1733 15.1757C52.4907 15.5178 52.6493 16.0146 52.6493 16.6661V25.0216C52.6493 25.6568 52.4986 26.1536 52.1971 26.5119C51.8956 26.854 51.4513 27.025 50.8641 27.025ZM50.8641 12.6349C50.1977 12.6349 49.6819 12.4801 49.317 12.1707C48.9679 11.8449 48.7933 11.3889 48.7933 10.8025C48.7933 10.1999 48.9679 9.74381 49.317 9.43434C49.6819 9.10859 50.1977 8.94571 50.8641 8.94571C51.5306 8.94571 52.0384 9.10859 52.3875 9.43434C52.7366 9.74381 52.9112 10.1999 52.9112 10.8025C52.9112 11.3889 52.7366 11.8449 52.3875 12.1707C52.0384 12.4801 51.5306 12.6349 50.8641 12.6349Z" fill="#F4F4F4"/>
<path d="M57.2332 27.0494C56.6461 27.0494 56.1938 26.8866 55.8764 26.5608C55.5749 26.2351 55.4242 25.7709 55.4242 25.1682V11.2667C55.4242 10.6478 55.5749 10.1836 55.8764 9.87411C56.1938 9.54836 56.6461 9.38548 57.2332 9.38548C57.8044 9.38548 58.2408 9.54836 58.5423 9.87411C58.8597 10.1836 59.0184 10.6478 59.0184 11.2667V19.7933H59.066L62.5174 15.8598C62.8665 15.4526 63.1838 15.1513 63.4694 14.9559C63.7709 14.7441 64.1677 14.6382 64.6596 14.6382C65.1515 14.6382 65.5244 14.7685 65.7783 15.0292C66.0481 15.2898 66.1829 15.6074 66.1829 15.982C66.1988 16.3403 66.0481 16.7068 65.7307 17.0814L62.0889 21.2592V19.8666L66.1353 24.6552C66.4368 25.0298 66.5638 25.4044 66.5162 25.779C66.4844 26.1536 66.3258 26.4631 66.0401 26.7074C65.7545 26.9354 65.3895 27.0494 64.9452 27.0494C64.4057 27.0494 63.9693 26.9436 63.6361 26.7318C63.3187 26.5201 62.9934 26.1943 62.6602 25.7546L59.066 21.6501H59.0184V25.1682C59.0184 26.4224 58.4233 27.0494 57.2332 27.0494Z" fill="#F4F4F4"/>
<path d="M74.1284 27.0983C72.8748 27.0983 71.7798 26.8458 70.8436 26.3409C69.9232 25.836 69.2092 25.1112 68.7014 24.1665C68.1936 23.2218 67.9397 22.1061 67.9397 20.8194C67.9397 19.8584 68.0825 18.9952 68.3681 18.2297C68.6538 17.4642 69.0663 16.8126 69.6059 16.2752C70.1613 15.7214 70.8198 15.306 71.5815 15.0292C72.3432 14.736 73.1921 14.5894 74.1284 14.5894C75.382 14.5894 76.4689 14.8418 77.3893 15.3468C78.3255 15.8517 79.0475 16.5683 79.5553 17.4967C80.079 18.4251 80.3408 19.5327 80.3408 20.8194C80.3408 21.7967 80.1901 22.6681 79.8886 23.4336C79.6029 24.1991 79.1904 24.8587 78.6508 25.4125C78.1113 25.9663 77.4528 26.3898 76.6752 26.683C75.9135 26.9599 75.0646 27.0983 74.1284 27.0983ZM74.1284 24.3375C74.652 24.3375 75.1043 24.2072 75.4851 23.9466C75.8659 23.686 76.1674 23.3033 76.3896 22.7984C76.6117 22.2772 76.7228 21.6175 76.7228 20.8194C76.7228 19.6304 76.4848 18.759 76.0087 18.2052C75.5327 17.6352 74.9059 17.3501 74.1284 17.3501C73.6206 17.3501 73.1683 17.4723 72.7716 17.7166C72.3908 17.9609 72.0893 18.3437 71.8671 18.8649C71.6608 19.3698 71.5577 20.0213 71.5577 20.8194C71.5577 22.0084 71.7957 22.8961 72.2717 23.4824C72.7478 24.0525 73.3667 24.3375 74.1284 24.3375Z" fill="#F4F4F4"/>
<path d="M91.1987 27.0494C90.6592 27.0494 90.2466 26.8947 89.9609 26.5852C89.6753 26.2758 89.5325 25.8441 89.5325 25.2904V11.1445C89.5325 10.5908 89.6833 10.1591 89.9848 9.84968C90.3021 9.54021 90.7306 9.38548 91.2701 9.38548C91.7461 9.38548 92.119 9.48321 92.3888 9.67866C92.6744 9.85782 92.9363 10.1754 93.1743 10.6315L98.6727 20.9416H97.8634L103.362 10.6315C103.6 10.1754 103.854 9.85782 104.123 9.67866C104.409 9.48321 104.782 9.38548 105.242 9.38548C105.782 9.38548 106.194 9.54021 106.48 9.84968C106.781 10.1591 106.932 10.5908 106.932 11.1445V25.2904C106.932 25.8441 106.789 26.2758 106.504 26.5852C106.218 26.8947 105.806 27.0494 105.266 27.0494C104.726 27.0494 104.306 26.8947 104.004 26.5852C103.719 26.2758 103.576 25.8441 103.576 25.2904V15.3956H104.1L99.6724 23.5313C99.482 23.8408 99.2757 24.0769 99.0535 24.2398C98.8472 24.3864 98.5695 24.4597 98.2204 24.4597C97.8713 24.4597 97.5857 24.3783 97.3635 24.2154C97.1414 24.0525 96.943 23.8245 96.7685 23.5313L92.2936 15.3712H92.8649V25.2904C92.8649 25.8441 92.722 26.2758 92.4364 26.5852C92.1666 26.8947 91.7541 27.0494 91.1987 27.0494Z" fill="#F4F4F4"/>
<path d="M115.643 27.0983C114.39 27.0983 113.295 26.8458 112.359 26.3409C111.438 25.836 110.724 25.1112 110.216 24.1665C109.709 23.2218 109.455 22.1061 109.455 20.8194C109.455 19.8584 109.598 18.9952 109.883 18.2297C110.169 17.4642 110.581 16.8126 111.121 16.2752C111.676 15.7214 112.335 15.306 113.096 15.0292C113.858 14.736 114.707 14.5894 115.643 14.5894C116.897 14.5894 117.984 14.8418 118.904 15.3468C119.841 15.8517 120.563 16.5683 121.07 17.4967C121.594 18.4251 121.856 19.5327 121.856 20.8194C121.856 21.7967 121.705 22.6681 121.404 23.4336C121.118 24.1991 120.705 24.8587 120.166 25.4125C119.626 25.9663 118.968 26.3898 118.19 26.683C117.429 26.9599 116.58 27.0983 115.643 27.0983ZM115.643 24.3375C116.167 24.3375 116.619 24.2072 117 23.9466C117.381 23.686 117.682 23.3033 117.905 22.7984C118.127 22.2772 118.238 21.6175 118.238 20.8194C118.238 19.6304 118 18.759 117.524 18.2052C117.048 17.6352 116.421 17.3501 115.643 17.3501C115.136 17.3501 114.683 17.4723 114.287 17.7166C113.906 17.9609 113.604 18.3437 113.382 18.8649C113.176 19.3698 113.073 20.0213 113.073 20.8194C113.073 22.0084 113.311 22.8961 113.787 23.4824C114.263 24.0525 114.882 24.3375 115.643 24.3375Z" fill="#F4F4F4"/>
<path d="M131.255 27.0983C130.318 27.0983 129.485 26.8621 128.755 26.3898C128.041 25.9012 127.565 25.2578 127.327 24.4597L127.589 23.6535V25.1682C127.589 25.7709 127.438 26.2351 127.137 26.5608C126.835 26.8866 126.399 27.0494 125.828 27.0494C125.256 27.0494 124.812 26.8866 124.495 26.5608C124.193 26.2351 124.042 25.7709 124.042 25.1682V11.2667C124.042 10.6478 124.193 10.1836 124.495 9.87411C124.812 9.54836 125.264 9.38548 125.851 9.38548C126.423 9.38548 126.859 9.54836 127.161 9.87411C127.478 10.1836 127.637 10.6478 127.637 11.2667V17.057H127.351C127.605 16.324 128.089 15.7295 128.803 15.2735C129.517 14.8174 130.334 14.5894 131.255 14.5894C132.286 14.5894 133.183 14.8418 133.944 15.3468C134.706 15.8517 135.301 16.5683 135.73 17.4967C136.158 18.4251 136.372 19.5327 136.372 20.8194C136.372 22.1061 136.158 23.2218 135.73 24.1665C135.301 25.1112 134.698 25.836 133.921 26.3409C133.159 26.8458 132.27 27.0983 131.255 27.0983ZM130.184 24.3375C130.691 24.3375 131.136 24.2072 131.516 23.9466C131.913 23.686 132.215 23.3033 132.421 22.7984C132.643 22.2772 132.754 21.6175 132.754 20.8194C132.754 19.6304 132.516 18.759 132.04 18.2052C131.564 17.6352 130.945 17.3501 130.184 17.3501C129.676 17.3501 129.224 17.4723 128.827 17.7166C128.446 17.9609 128.144 18.3437 127.922 18.8649C127.7 19.3698 127.589 20.0213 127.589 20.8194C127.589 22.0084 127.827 22.8961 128.303 23.4824C128.779 24.0525 129.406 24.3375 130.184 24.3375Z" fill="#F4F4F4"/>
<path d="M140.379 27.025C139.792 27.025 139.34 26.854 139.023 26.5119C138.721 26.1536 138.57 25.6568 138.57 25.0216V16.6661C138.57 16.0146 138.721 15.5178 139.023 15.1757C139.34 14.8174 139.792 14.6382 140.379 14.6382C140.951 14.6382 141.387 14.8174 141.689 15.1757C142.006 15.5178 142.165 16.0146 142.165 16.6661V25.0216C142.165 25.6568 142.014 26.1536 141.712 26.5119C141.411 26.854 140.967 27.025 140.379 27.025ZM140.379 12.6349C139.713 12.6349 139.197 12.4801 138.832 12.1707C138.483 11.8449 138.309 11.3889 138.309 10.8025C138.309 10.1999 138.483 9.74381 138.832 9.43434C139.197 9.10859 139.713 8.94571 140.379 8.94571C141.046 8.94571 141.554 9.10859 141.903 9.43434C142.252 9.74381 142.426 10.1999 142.426 10.8025C142.426 11.3889 142.252 11.8449 141.903 12.1707C141.554 12.4801 141.046 12.6349 140.379 12.6349Z" fill="#F4F4F4"/>
<path d="M149.153 27.0983C147.74 27.0983 146.685 26.6993 145.987 25.9012C145.289 25.0868 144.939 23.8815 144.939 22.2853V11.2667C144.939 10.6478 145.09 10.1836 145.392 9.87411C145.709 9.54836 146.161 9.38548 146.748 9.38548C147.32 9.38548 147.756 9.54836 148.058 9.87411C148.375 10.1836 148.534 10.6478 148.534 11.2667V22.1387C148.534 22.8065 148.669 23.3033 148.938 23.629C149.224 23.9385 149.597 24.0932 150.057 24.0932C150.184 24.0932 150.303 24.0851 150.414 24.0688C150.525 24.0525 150.644 24.0444 150.771 24.0444C151.025 24.0118 151.2 24.0932 151.295 24.2887C151.406 24.4678 151.461 24.8343 151.461 25.3881C151.461 25.8767 151.366 26.2513 151.176 26.5119C150.985 26.7563 150.692 26.9191 150.295 27.0006C150.136 27.0169 149.954 27.0331 149.748 27.0494C149.541 27.082 149.343 27.0983 149.153 27.0983Z" fill="#F4F4F4"/>
<path d="M154.675 27.025C154.088 27.025 153.635 26.854 153.318 26.5119C153.017 26.1536 152.866 25.6568 152.866 25.0216V16.6661C152.866 16.0146 153.017 15.5178 153.318 15.1757C153.635 14.8174 154.088 14.6382 154.675 14.6382C155.246 14.6382 155.683 14.8174 155.984 15.1757C156.301 15.5178 156.46 16.0146 156.46 16.6661V25.0216C156.46 25.6568 156.309 26.1536 156.008 26.5119C155.706 26.854 155.262 27.025 154.675 27.025ZM154.675 12.6349C154.008 12.6349 153.493 12.4801 153.128 12.1707C152.779 11.8449 152.604 11.3889 152.604 10.8025C152.604 10.1999 152.779 9.74381 153.128 9.43434C153.493 9.10859 154.008 8.94571 154.675 8.94571C155.341 8.94571 155.849 9.10859 156.198 9.43434C156.547 9.74381 156.722 10.1999 156.722 10.8025C156.722 11.3889 156.547 11.8449 156.198 12.1707C155.849 12.4801 155.341 12.6349 154.675 12.6349Z" fill="#F4F4F4"/>
<path d="M164.971 27.0983C163.876 27.0983 162.956 26.911 162.21 26.5364C161.48 26.1618 160.933 25.6161 160.568 24.8995C160.219 24.1828 160.044 23.2788 160.044 22.1876V17.5945H159.045C158.6 17.5945 158.251 17.4723 157.997 17.228C157.759 16.9837 157.64 16.6498 157.64 16.2263C157.64 15.7702 157.759 15.4282 157.997 15.2002C158.251 14.9559 158.6 14.8337 159.045 14.8337H160.044V12.9769C160.044 12.358 160.203 11.8938 160.52 11.5843C160.838 11.2586 161.282 11.0957 161.853 11.0957C162.44 11.0957 162.885 11.2586 163.186 11.5843C163.488 11.8938 163.638 12.358 163.638 12.9769V14.8337H165.9C166.344 14.8337 166.685 14.9559 166.923 15.2002C167.161 15.4282 167.28 15.7702 167.28 16.2263C167.28 16.6498 167.161 16.9837 166.923 17.228C166.685 17.4723 166.344 17.5945 165.9 17.5945H163.638V22.041C163.638 22.7251 163.789 23.2381 164.091 23.5802C164.408 23.9222 164.908 24.0932 165.59 24.0932C165.828 24.0932 166.05 24.0688 166.257 24.0199C166.463 23.9711 166.653 23.9385 166.828 23.9222C167.05 23.9059 167.233 23.9792 167.375 24.1421C167.518 24.2887 167.59 24.6226 167.59 25.1438C167.59 25.5347 167.526 25.8767 167.399 26.1699C167.272 26.4631 167.05 26.6748 166.733 26.8051C166.526 26.8866 166.241 26.9517 165.876 27.0006C165.527 27.0657 165.225 27.0983 164.971 27.0983Z" fill="#F4F4F4"/>
<path d="M172.257 31.4471C171.844 31.4471 171.503 31.3331 171.233 31.1051C170.964 30.877 170.805 30.5757 170.757 30.2011C170.71 29.8428 170.773 29.46 170.948 29.0528L172.543 25.437V26.9517L168.33 17.0325C168.171 16.6091 168.115 16.2181 168.163 15.8598C168.226 15.4852 168.401 15.192 168.687 14.9803C168.988 14.7523 169.401 14.6382 169.924 14.6382C170.353 14.6382 170.694 14.7441 170.948 14.9559C171.218 15.1513 171.464 15.5341 171.686 16.1041L174.494 23.4336H173.733L176.637 16.0797C176.859 15.5259 177.105 15.1513 177.375 14.9559C177.66 14.7441 178.041 14.6382 178.517 14.6382C178.93 14.6382 179.255 14.7523 179.493 14.9803C179.747 15.192 179.898 15.4771 179.945 15.8354C180.009 16.1937 179.945 16.5846 179.755 17.0081L174.161 30.0301C173.923 30.5839 173.653 30.9585 173.352 31.1539C173.066 31.3494 172.701 31.4471 172.257 31.4471Z" fill="#F4F4F4"/>
<path d="M34.552 43.0125H33.5451L36.4573 34.8718H37.4487L40.3609 43.0125H39.354L36.984 36.1597H36.922L34.552 43.0125ZM34.9238 39.8326H38.9823V40.7071H34.9238V39.8326Z" fill="#F4F4F4"/>
<path d="M43.9979 43.1397C43.4403 43.1397 42.9601 43.0046 42.5573 42.7343C42.1546 42.464 41.8447 42.0917 41.6279 41.6173C41.411 41.143 41.3026 40.6011 41.3026 39.9916C41.3026 39.3715 41.4136 38.8243 41.6356 38.3499C41.8602 37.8729 42.1726 37.5006 42.5728 37.233C42.9756 36.9627 43.4454 36.8275 43.9824 36.8275C44.4007 36.8275 44.7776 36.907 45.1132 37.066C45.4489 37.225 45.7238 37.4476 45.9381 37.7338C46.1524 38.02 46.2853 38.3539 46.337 38.7355H45.423C45.3533 38.4572 45.1984 38.2108 44.9583 37.9962C44.7208 37.7789 44.4007 37.6702 43.9979 37.6702C43.6416 37.6702 43.3292 37.7656 43.0607 37.9564C42.7948 38.1446 42.587 38.4109 42.4373 38.7554C42.2901 39.0972 42.2165 39.4987 42.2165 39.9598C42.2165 40.4315 42.2888 40.8422 42.4334 41.192C42.5805 41.5418 42.7871 41.8134 43.053 42.0069C43.3215 42.2003 43.6365 42.297 43.9979 42.297C44.2354 42.297 44.451 42.2546 44.6446 42.1698C44.8383 42.085 45.0022 41.9631 45.1365 41.8041C45.2707 41.6451 45.3662 41.4544 45.423 41.2318H46.337C46.2853 41.5921 46.1575 41.9168 45.9536 42.2056C45.7522 42.4918 45.485 42.7197 45.152 42.8893C44.8215 43.0563 44.4368 43.1397 43.9979 43.1397Z" fill="#F4F4F4"/>
<path d="M48.696 39.3397V43.0125H47.7821V34.8718H48.696V37.861H48.7735C48.9129 37.5457 49.122 37.2952 49.4008 37.1097C49.6823 36.9216 50.0566 36.8275 50.5239 36.8275C50.9292 36.8275 51.2842 36.911 51.5889 37.0779C51.8935 37.2422 52.1297 37.4953 52.2976 37.8372C52.468 38.1763 52.5532 38.6083 52.5532 39.133V43.0125H51.6392V39.1966C51.6392 38.7116 51.5166 38.3367 51.2713 38.0717C51.0286 37.804 50.6917 37.6702 50.2606 37.6702C49.9611 37.6702 49.6926 37.7351 49.4551 37.865C49.2201 37.9948 49.0342 38.1843 48.8974 38.4334C48.7632 38.6825 48.696 38.9846 48.696 39.3397Z" fill="#F4F4F4"/>
<path d="M56.8282 43.1397C56.255 43.1397 55.7606 43.0099 55.345 42.7502C54.9319 42.4878 54.613 42.1221 54.3884 41.6531C54.1664 41.1814 54.0554 40.6329 54.0554 40.0075C54.0554 39.3821 54.1664 38.8309 54.3884 38.3539C54.613 37.8743 54.9254 37.5006 55.3256 37.233C55.7283 36.9627 56.1982 36.8275 56.7352 36.8275C57.045 36.8275 57.351 36.8805 57.653 36.9865C57.9551 37.0925 58.2301 37.2648 58.4779 37.5033C58.7258 37.7391 58.9233 38.0518 59.0704 38.4414C59.2176 38.8309 59.2912 39.3105 59.2912 39.8803V40.2778H54.706V39.4669H58.3617C58.3617 39.1224 58.2946 38.815 58.1604 38.5447C58.0287 38.2744 57.8402 38.0611 57.5949 37.9047C57.3523 37.7484 57.0657 37.6702 56.7352 37.6702C56.3712 37.6702 56.0562 37.763 55.7903 37.9485C55.527 38.1313 55.3243 38.3698 55.1823 38.6639C55.0403 38.9581 54.9693 39.2734 54.9693 39.61V40.1506C54.9693 40.6117 55.0468 41.0025 55.2017 41.3232C55.3592 41.6412 55.5773 41.8836 55.8561 42.0506C56.135 42.2149 56.459 42.297 56.8282 42.297C57.0683 42.297 57.2851 42.2626 57.4788 42.1937C57.675 42.1221 57.8441 42.0161 57.9861 41.8757C58.1281 41.7326 58.2378 41.555 58.3153 41.343L59.1982 41.5975C59.1053 41.9048 58.9491 42.1751 58.7296 42.4083C58.5102 42.6389 58.2391 42.8191 57.9164 42.9489C57.5937 43.0761 57.2309 43.1397 56.8282 43.1397Z" fill="#F4F4F4"/>
<path d="M63.3774 36.907V37.702H60.2948V36.907H63.3774ZM61.1932 35.4442H62.1072V41.2636C62.1072 41.5285 62.1446 41.7273 62.2195 41.8598C62.2969 41.9896 62.395 42.0771 62.5138 42.1221C62.6351 42.1645 62.7629 42.1857 62.8972 42.1857C62.9979 42.1857 63.0805 42.1804 63.145 42.1698C63.2096 42.1566 63.2612 42.146 63.2999 42.138L63.4858 42.9807C63.4239 43.0046 63.3374 43.0284 63.2264 43.0523C63.1153 43.0788 62.9746 43.092 62.8042 43.092C62.5461 43.092 62.2931 43.0351 62.0452 42.9211C61.7999 42.8072 61.596 42.6336 61.4333 42.4004C61.2733 42.1672 61.1932 41.873 61.1932 41.5179V35.4442Z" fill="#F4F4F4"/>
<path d="M67.2913 43.1397C66.7181 43.1397 66.2237 43.0099 65.8081 42.7502C65.395 42.4878 65.0762 42.1221 64.8515 41.6531C64.6295 41.1814 64.5185 40.6329 64.5185 40.0075C64.5185 39.3821 64.6295 38.8309 64.8515 38.3539C65.0762 37.8743 65.3885 37.5006 65.7887 37.233C66.1915 36.9627 66.6613 36.8275 67.1983 36.8275C67.5082 36.8275 67.8141 36.8805 68.1161 36.9865C68.4182 37.0925 68.6932 37.2648 68.941 37.5033C69.1889 37.7391 69.3864 38.0518 69.5335 38.4414C69.6807 38.8309 69.7543 39.3105 69.7543 39.8803V40.2778H65.1691V39.4669H68.8248C68.8248 39.1224 68.7577 38.815 68.6235 38.5447C68.4918 38.2744 68.3033 38.0611 68.0581 37.9047C67.8154 37.7484 67.5288 37.6702 67.1983 37.6702C66.8343 37.6702 66.5193 37.763 66.2534 37.9485C65.9901 38.1313 65.7874 38.3698 65.6454 38.6639C65.5034 38.9581 65.4324 39.2734 65.4324 39.61V40.1506C65.4324 40.6117 65.5099 41.0025 65.6648 41.3232C65.8223 41.6412 66.0404 41.8836 66.3193 42.0506C66.5981 42.2149 66.9221 42.297 67.2913 42.297C67.5314 42.297 67.7483 42.2626 67.9419 42.1937C68.1381 42.1221 68.3072 42.0161 68.4492 41.8757C68.5912 41.7326 68.7009 41.555 68.7784 41.343L69.6613 41.5975C69.5684 41.9048 69.4122 42.1751 69.1927 42.4083C68.9733 42.6389 68.7022 42.8191 68.3795 42.9489C68.0568 43.0761 67.694 43.1397 67.2913 43.1397Z" fill="#F4F4F4"/>
<path d="M71.0832 43.0125V42.297L74.4601 37.8451V37.7815H71.1916V36.907H75.6374V37.6543L72.3534 42.0744V42.138H75.7458V43.0125H71.0832Z" fill="#F4F4F4"/>
<path d="M80.4388 43.0125V36.907H81.3217V37.861H81.3992C81.5231 37.5351 81.7232 37.282 81.9994 37.1018C82.2757 36.9189 82.6074 36.8275 82.9947 36.8275C83.3871 36.8275 83.7137 36.9189 83.9745 37.1018C84.2378 37.282 84.443 37.5351 84.5902 37.861H84.6522C84.8045 37.5457 85.033 37.2952 85.3376 37.1097C85.6423 36.9216 86.0076 36.8275 86.4336 36.8275C86.9654 36.8275 87.4004 36.9984 87.7386 37.3403C88.0768 37.6795 88.2459 38.2082 88.2459 38.9263V43.0125H87.332V38.9263C87.332 38.4758 87.212 38.1538 86.9719 37.9604C86.7318 37.7669 86.449 37.6702 86.1237 37.6702C85.7055 37.6702 85.3815 37.8001 85.1517 38.0597C84.922 38.3168 84.8071 38.6427 84.8071 39.0376V43.0125H83.8776V38.8309C83.8776 38.4837 83.7679 38.2042 83.5485 37.9922C83.329 37.7775 83.0463 37.6702 82.7004 37.6702C82.4628 37.6702 82.2408 37.7351 82.0343 37.865C81.8303 37.9948 81.6651 38.175 81.5386 38.4056C81.4147 38.6335 81.3527 38.8971 81.3527 39.1966V43.0125H80.4388Z" fill="#F4F4F4"/>
<path d="M91.7765 43.1556C91.3995 43.1556 91.0574 43.0828 90.7502 42.937C90.443 42.7886 90.199 42.5753 90.0183 42.297C89.8376 42.0161 89.7472 41.6769 89.7472 41.2795C89.7472 40.9297 89.8143 40.6461 89.9486 40.4288C90.0828 40.2089 90.2623 40.0366 90.4869 39.9121C90.7115 39.7875 90.9593 39.6948 91.2304 39.6338C91.5041 39.5702 91.779 39.5199 92.0553 39.4828C92.4167 39.4351 92.7098 39.3993 92.9344 39.3755C93.1616 39.349 93.3268 39.3052 93.4301 39.2443C93.5359 39.1833 93.5888 39.0773 93.5888 38.9263V38.8945C93.5888 38.5023 93.4843 38.1975 93.2752 37.9803C93.0686 37.763 92.7549 37.6543 92.3341 37.6543C91.8978 37.6543 91.5557 37.7524 91.3079 37.9485C91.06 38.1446 90.8858 38.3539 90.7851 38.5765L89.9176 38.2585C90.0725 37.8875 90.279 37.5987 90.5372 37.392C90.798 37.1826 91.082 37.0369 91.3892 36.9547C91.699 36.8699 92.0036 36.8275 92.3031 36.8275C92.4942 36.8275 92.7136 36.8514 92.9615 36.8991C93.2119 36.9441 93.4533 37.0382 93.6857 37.1813C93.9206 37.3244 94.1155 37.5404 94.2704 37.8292C94.4253 38.1181 94.5028 38.5049 94.5028 38.9899V43.0125H93.5888V42.1857H93.5424C93.4804 42.3182 93.3771 42.46 93.2326 42.6111C93.088 42.7621 92.8956 42.8906 92.6555 42.9966C92.4154 43.1026 92.1224 43.1556 91.7765 43.1556ZM91.9159 42.3129C92.2773 42.3129 92.582 42.2401 92.8298 42.0943C93.0802 41.9486 93.2687 41.7604 93.3952 41.5299C93.5243 41.2993 93.5888 41.0569 93.5888 40.8025V39.9439C93.5501 39.9916 93.4649 40.0353 93.3332 40.075C93.2042 40.1121 93.0544 40.1453 92.884 40.1744C92.7162 40.2009 92.5523 40.2248 92.3922 40.246C92.2347 40.2645 92.1069 40.2804 92.0088 40.2937C91.7713 40.3255 91.5493 40.3771 91.3427 40.4487C91.1388 40.5176 90.9735 40.6223 90.847 40.7627C90.7231 40.9005 90.6611 41.0887 90.6611 41.3272C90.6611 41.6531 90.7786 41.8995 91.0135 42.0665C91.2511 42.2308 91.5518 42.3129 91.9159 42.3129Z" fill="#F4F4F4"/>
<path d="M97.1939 34.8718V43.0125H96.28V34.8718H97.1939Z" fill="#F4F4F4"/>
<path d="M98.9769 43.0125V36.907H99.8908V43.0125H98.9769ZM99.4416 35.8894C99.2635 35.8894 99.1098 35.8272 98.9808 35.7026C98.8543 35.5781 98.791 35.4283 98.791 35.2534C98.791 35.0785 98.8543 34.9288 98.9808 34.8043C99.1098 34.6797 99.2635 34.6175 99.4416 34.6175C99.6197 34.6175 99.7721 34.6797 99.8986 34.8043C100.028 34.9288 100.092 35.0785 100.092 35.2534C100.092 35.4283 100.028 35.5781 99.8986 35.7026C99.7721 35.8272 99.6197 35.8894 99.4416 35.8894Z" fill="#F4F4F4"/>
<path d="M102.588 39.3397V43.0125H101.674V36.907H102.557V37.861H102.634C102.774 37.551 102.985 37.3019 103.269 37.1137C103.553 36.9229 103.92 36.8275 104.369 36.8275C104.772 36.8275 105.124 36.9123 105.426 37.0819C105.728 37.2489 105.963 37.5033 106.131 37.8451C106.299 38.1843 106.383 38.6136 106.383 39.133V43.0125H105.469V39.1966C105.469 38.7169 105.348 38.3433 105.105 38.0757C104.862 37.8054 104.529 37.6702 104.106 37.6702C103.814 37.6702 103.553 37.7351 103.324 37.865C103.096 37.9948 102.917 38.1843 102.785 38.4334C102.654 38.6825 102.588 38.9846 102.588 39.3397Z" fill="#F4F4F4"/>
<path d="M109.525 41.8995L109.463 42.3288C109.419 42.6309 109.352 42.9542 109.262 43.2987C109.174 43.6432 109.082 43.9678 108.987 44.2726C108.891 44.5773 108.813 44.8198 108.751 45H108.054C108.087 44.8304 108.131 44.6065 108.185 44.3282C108.239 44.05 108.294 43.7386 108.348 43.3941C108.405 43.0523 108.451 42.7025 108.487 42.3447L108.534 41.8995H109.525Z" fill="#F4F4F4"/>
<path d="M114.504 43.0125V36.907H115.387V37.8292H115.449C115.557 37.5271 115.753 37.282 116.037 37.0938C116.321 36.9057 116.641 36.8116 116.998 36.8116C117.065 36.8116 117.149 36.8129 117.249 36.8156C117.35 36.8182 117.426 36.8222 117.478 36.8275V37.7815C117.447 37.7736 117.376 37.7616 117.265 37.7457C117.156 37.7272 117.042 37.7179 116.92 37.7179C116.631 37.7179 116.373 37.7802 116.146 37.9047C115.921 38.0266 115.743 38.1962 115.611 38.4135C115.482 38.6282 115.418 38.8733 115.418 39.1489V43.0125H114.504Z" fill="#F4F4F4"/>
<path d="M120.906 43.1397C120.369 43.1397 119.898 43.0086 119.492 42.7462C119.09 42.4839 118.775 42.1168 118.547 41.6452C118.323 41.1735 118.21 40.6223 118.21 39.9916C118.21 39.3556 118.323 38.8004 118.547 38.3261C118.775 37.8517 119.09 37.4834 119.492 37.221C119.898 36.9587 120.369 36.8275 120.906 36.8275C121.443 36.8275 121.913 36.9587 122.315 37.221C122.721 37.4834 123.036 37.8517 123.26 38.3261C123.488 38.8004 123.601 39.3556 123.601 39.9916C123.601 40.6223 123.488 41.1735 123.26 41.6452C123.036 42.1168 122.721 42.4839 122.315 42.7462C121.913 43.0086 121.443 43.1397 120.906 43.1397ZM120.906 42.297C121.314 42.297 121.649 42.1897 121.913 41.9751C122.176 41.7604 122.371 41.4782 122.497 41.1284C122.624 40.7786 122.687 40.3997 122.687 39.9916C122.687 39.5835 122.624 39.2032 122.497 38.8508C122.371 38.4983 122.176 38.2135 121.913 37.9962C121.649 37.7789 121.314 37.6702 120.906 37.6702C120.498 37.6702 120.162 37.7789 119.899 37.9962C119.636 38.2135 119.441 38.4983 119.314 38.8508C119.188 39.2032 119.124 39.5835 119.124 39.9916C119.124 40.3997 119.188 40.7786 119.314 41.1284C119.441 41.4782 119.636 41.7604 119.899 41.9751C120.162 42.1897 120.498 42.297 120.906 42.297Z" fill="#F4F4F4"/>
<path d="M128.854 40.5163V36.907H129.768V43.0125H128.854V41.979H128.792C128.653 42.2891 128.436 42.5528 128.141 42.7701C127.847 42.9847 127.475 43.092 127.026 43.092C126.654 43.092 126.324 43.0086 126.035 42.8416C125.746 42.672 125.518 42.4176 125.353 42.0784C125.188 41.7366 125.105 41.306 125.105 40.7866V36.907H126.019V40.723C126.019 41.1682 126.141 41.5232 126.383 41.7882C126.629 42.0532 126.941 42.1857 127.32 42.1857C127.548 42.1857 127.779 42.1261 128.014 42.0069C128.251 41.8876 128.45 41.7048 128.61 41.4583C128.773 41.2119 128.854 40.8979 128.854 40.5163Z" fill="#F4F4F4"/>
<path d="M132.465 34.8718V43.0125H131.551V34.8718H132.465Z" fill="#F4F4F4"/>
<path d="M136.742 43.1397C136.169 43.1397 135.674 43.0099 135.259 42.7502C134.846 42.4878 134.527 42.1221 134.302 41.6531C134.08 41.1814 133.969 40.6329 133.969 40.0075C133.969 39.3821 134.08 38.8309 134.302 38.3539C134.527 37.8743 134.839 37.5006 135.239 37.233C135.642 36.9627 136.112 36.8275 136.649 36.8275C136.959 36.8275 137.265 36.8805 137.567 36.9865C137.869 37.0925 138.144 37.2648 138.392 37.5033C138.639 37.7391 138.837 38.0518 138.984 38.4414C139.131 38.8309 139.205 39.3105 139.205 39.8803V40.2778H134.62V39.4669H138.275C138.275 39.1224 138.208 38.815 138.074 38.5447C137.942 38.2744 137.754 38.0611 137.509 37.9047C137.266 37.7484 136.979 37.6702 136.649 37.6702C136.285 37.6702 135.97 37.763 135.704 37.9485C135.441 38.1313 135.238 38.3698 135.096 38.6639C134.954 38.9581 134.883 39.2734 134.883 39.61V40.1506C134.883 40.6117 134.96 41.0025 135.115 41.3232C135.273 41.6412 135.491 41.8836 135.77 42.0506C136.049 42.2149 136.373 42.297 136.742 42.297C136.982 42.297 137.199 42.2626 137.392 42.1937C137.589 42.1221 137.758 42.0161 137.9 41.8757C138.042 41.7326 138.151 41.555 138.229 41.343L139.112 41.5975C139.019 41.9048 138.863 42.1751 138.643 42.4083C138.424 42.6389 138.153 42.8191 137.83 42.9489C137.507 43.0761 137.145 43.1397 136.742 43.1397Z" fill="#F4F4F4"/>
<path d="M140.534 43.0125V42.297L143.911 37.8451V37.7815H140.642V36.907H145.088V37.6543L141.804 42.0744V42.138H145.196V43.0125H140.534Z" fill="#F4F4F4"/>
<path d="M154.103 38.2744L153.282 38.5129C153.23 38.3724 153.154 38.236 153.053 38.1035C152.955 37.9683 152.821 37.857 152.65 37.7696C152.48 37.6821 152.262 37.6384 151.996 37.6384C151.632 37.6384 151.329 37.7245 151.086 37.8968C150.846 38.0664 150.726 38.2823 150.726 38.5447C150.726 38.7779 150.808 38.9621 150.974 39.0972C151.139 39.2324 151.397 39.345 151.748 39.4351L152.631 39.6577C153.163 39.7902 153.559 39.9929 153.82 40.2658C154.081 40.5361 154.211 40.8846 154.211 41.3113C154.211 41.661 154.113 41.9737 153.917 42.2493C153.723 42.5249 153.452 42.7422 153.104 42.9012C152.755 43.0602 152.35 43.1397 151.888 43.1397C151.281 43.1397 150.779 43.0046 150.381 42.7343C149.983 42.464 149.732 42.0691 149.626 41.5498L150.493 41.3272C150.576 41.6557 150.732 41.9022 150.962 42.0665C151.194 42.2308 151.498 42.3129 151.872 42.3129C152.298 42.3129 152.636 42.2202 152.887 42.0347C153.14 41.8465 153.266 41.6213 153.266 41.359C153.266 41.147 153.194 40.9694 153.049 40.8263C152.905 40.6806 152.683 40.5719 152.383 40.5004L151.392 40.2619C150.847 40.1294 150.447 39.924 150.191 39.6458C149.938 39.3649 149.812 39.0137 149.812 38.5924C149.812 38.2479 149.906 37.9432 150.095 37.6782C150.286 37.4132 150.545 37.2051 150.873 37.0541C151.203 36.903 151.578 36.8275 151.996 36.8275C152.585 36.8275 153.047 36.96 153.382 37.225C153.721 37.49 153.961 37.8398 154.103 38.2744Z" fill="#F4F4F4"/>
<path d="M158.19 43.1397C157.617 43.1397 157.122 43.0099 156.707 42.7502C156.294 42.4878 155.975 42.1221 155.75 41.6531C155.528 41.1814 155.417 40.6329 155.417 40.0075C155.417 39.3821 155.528 38.8309 155.75 38.3539C155.975 37.8743 156.287 37.5006 156.687 37.233C157.09 36.9627 157.56 36.8275 158.097 36.8275C158.407 36.8275 158.713 36.8805 159.015 36.9865C159.317 37.0925 159.592 37.2648 159.84 37.5033C160.087 37.7391 160.285 38.0518 160.432 38.4414C160.579 38.8309 160.653 39.3105 160.653 39.8803V40.2778H156.068V39.4669H159.723C159.723 39.1224 159.656 38.815 159.522 38.5447C159.39 38.2744 159.202 38.0611 158.957 37.9047C158.714 37.7484 158.427 37.6702 158.097 37.6702C157.733 37.6702 157.418 37.763 157.152 37.9485C156.889 38.1313 156.686 38.3698 156.544 38.6639C156.402 38.9581 156.331 39.2734 156.331 39.61V40.1506C156.331 40.6117 156.408 41.0025 156.563 41.3232C156.721 41.6412 156.939 41.8836 157.218 42.0506C157.497 42.2149 157.821 42.297 158.19 42.297C158.43 42.297 158.647 42.2626 158.84 42.1937C159.037 42.1221 159.206 42.0161 159.348 41.8757C159.49 41.7326 159.599 41.555 159.677 41.343L160.56 41.5975C160.467 41.9048 160.311 42.1751 160.091 42.4083C159.872 42.6389 159.601 42.8191 159.278 42.9489C158.955 43.0761 158.593 43.1397 158.19 43.1397Z" fill="#F4F4F4"/>
<path d="M162.152 43.0125V36.907H163.035V37.8292H163.097C163.206 37.5271 163.402 37.282 163.686 37.0938C163.97 36.9057 164.29 36.8116 164.646 36.8116C164.713 36.8116 164.797 36.8129 164.898 36.8156C164.999 36.8182 165.075 36.8222 165.126 36.8275V37.7815C165.095 37.7736 165.024 37.7616 164.913 37.7457C164.805 37.7272 164.69 37.7179 164.569 37.7179C164.28 37.7179 164.021 37.7802 163.794 37.9047C163.57 38.0266 163.391 38.1962 163.26 38.4135C163.131 38.6282 163.066 38.8733 163.066 39.1489V43.0125H162.152Z" fill="#F4F4F4"/>
<path d="M168.632 43.1397C168.059 43.1397 167.564 43.0099 167.148 42.7502C166.735 42.4878 166.417 42.1221 166.192 41.6531C165.97 41.1814 165.859 40.6329 165.859 40.0075C165.859 39.3821 165.97 38.8309 166.192 38.3539C166.417 37.8743 166.729 37.5006 167.129 37.233C167.532 36.9627 168.002 36.8275 168.539 36.8275C168.849 36.8275 169.154 36.8805 169.457 36.9865C169.759 37.0925 170.034 37.2648 170.281 37.5033C170.529 37.7391 170.727 38.0518 170.874 38.4414C171.021 38.8309 171.095 39.3105 171.095 39.8803V40.2778H166.509V39.4669H170.165C170.165 39.1224 170.098 38.815 169.964 38.5447C169.832 38.2744 169.644 38.0611 169.398 37.9047C169.156 37.7484 168.869 37.6702 168.539 37.6702C168.175 37.6702 167.86 37.763 167.594 37.9485C167.33 38.1313 167.128 38.3698 166.986 38.6639C166.844 38.9581 166.773 39.2734 166.773 39.61V40.1506C166.773 40.6117 166.85 41.0025 167.005 41.3232C167.163 41.6412 167.381 41.8836 167.66 42.0506C167.938 42.2149 168.262 42.297 168.632 42.297C168.872 42.297 169.089 42.2626 169.282 42.1937C169.478 42.1221 169.648 42.0161 169.79 41.8757C169.932 41.7326 170.041 41.555 170.119 41.343L171.002 41.5975C170.909 41.9048 170.753 42.1751 170.533 42.4083C170.314 42.6389 170.043 42.8191 169.72 42.9489C169.397 43.0761 169.034 43.1397 168.632 43.1397Z" fill="#F4F4F4"/>
<path d="M172.594 43.0125V36.907H173.508V43.0125H172.594ZM173.059 35.8894C172.881 35.8894 172.727 35.8272 172.598 35.7026C172.471 35.5781 172.408 35.4283 172.408 35.2534C172.408 35.0785 172.471 34.9288 172.598 34.8043C172.727 34.6797 172.881 34.6175 173.059 34.6175C173.237 34.6175 173.389 34.6797 173.516 34.8043C173.645 34.9288 173.709 35.0785 173.709 35.2534C173.709 35.4283 173.645 35.5781 173.516 35.7026C173.389 35.8272 173.237 35.8894 173.059 35.8894Z" fill="#F4F4F4"/>
<path d="M176.205 39.3397V43.0125H175.291V36.907H176.174V37.861H176.251C176.391 37.551 176.602 37.3019 176.886 37.1137C177.17 36.9229 177.537 36.8275 177.986 36.8275C178.389 36.8275 178.741 36.9123 179.043 37.0819C179.346 37.2489 179.58 37.5033 179.748 37.8451C179.916 38.1843 180 38.6136 180 39.133V43.0125H179.086V39.1966C179.086 38.7169 178.965 38.3433 178.722 38.0757C178.479 37.8054 178.146 37.6702 177.723 37.6702C177.431 37.6702 177.17 37.7351 176.941 37.865C176.713 37.9948 176.534 38.1843 176.402 38.4334C176.271 38.6825 176.205 38.9846 176.205 39.3397Z" fill="#F4F4F4"/>
</svg>
