<svg width="156" height="39" viewBox="0 0 156 39" fill="none" xmlns="http://www.w3.org/2000/svg">
<g clip-path="url(#clip0_1625_256)">
<path fill-rule="evenodd" clip-rule="evenodd" d="M135.614 6.31325e-05H20.3867C8.19324 -0.0273392 0 8.86928 0 19.5353C0 30.2013 8.17266 38.9962 20.404 39.0001H135.593C147.826 38.9962 156 30.2013 156 19.5353C156 8.86928 147.807 -0.0273392 135.614 6.31325e-05ZM135.555 34.2171H20.4426C10.7205 34.2536 4.81346 27.6327 4.81346 19.5092C4.81346 11.3857 10.7591 4.81634 20.4426 4.79938H135.555C145.24 4.817 151.187 11.3851 151.187 19.5092C151.187 27.6333 145.276 34.2536 135.555 34.2171Z" fill="#F4F4F4"/>
<path fill-rule="evenodd" clip-rule="evenodd" d="M142.033 8.94043C140.068 8.94043 138.404 10.4743 138.404 12.5543C138.404 14.6342 140.068 16.189 142.033 16.189C143.998 16.189 145.64 14.6558 145.64 12.5543C145.64 10.4528 143.981 8.94043 142.033 8.94043ZM142.033 15.5848C140.399 15.5848 139.124 14.3008 139.124 12.5543C139.124 10.8077 140.399 9.54393 142.033 9.54393C143.666 9.54393 144.922 10.8403 144.922 12.5543C144.922 14.2682 143.65 15.5848 142.033 15.5848Z" fill="#F4F4F4"/>
<path fill-rule="evenodd" clip-rule="evenodd" d="M142.609 12.8147C143.216 12.7358 143.679 12.4102 143.679 11.6632C143.679 10.8398 143.195 10.4751 142.224 10.4751H140.652V14.6559H141.28V12.8428H141.994L143.083 14.6559H143.779L142.609 12.8147ZM141.279 12.3052V11.0107H142.129C142.56 11.0107 143.023 11.108 143.023 11.6247C143.023 12.268 142.555 12.3052 142.025 12.3052H141.279Z" fill="#F4F4F4"/>
<path fill-rule="evenodd" clip-rule="evenodd" d="M138.573 17.6132C137.134 16.3722 135.145 15.605 132.948 15.605C128.559 15.605 125.001 18.6747 125.001 22.4627C125.001 26.2508 128.559 29.3166 132.948 29.3166C137.336 29.3166 140.901 26.2475 140.901 22.4627C140.901 20.5687 140.012 18.8541 138.573 17.6132ZM135.131 25.0307C135.131 26.9763 133.999 27.7807 132.906 27.7807C131.812 27.7807 130.678 26.9763 130.678 25.0307C130.678 24.2889 130.681 22.4001 130.681 22.4001C130.681 22.4001 130.686 20.5948 130.686 19.853C130.686 17.9153 131.821 17.118 132.906 17.118C133.99 17.118 135.131 17.9153 135.131 19.853C135.131 20.5942 135.131 21.9584 135.134 22.4523C135.133 22.5704 135.131 24.3137 135.131 25.0307Z" fill="#F4F4F4"/>
<path fill-rule="evenodd" clip-rule="evenodd" d="M117.859 10.2871V17.0424C116.986 16.5472 116.07 16.0696 114.779 15.9529C110.861 15.6045 107.862 19.1224 107.862 22.348C107.862 26.5934 111.093 28.1671 111.583 28.4C113.414 29.2639 115.768 29.2671 117.847 27.942L117.851 28.644H123.228V10.2871H117.859ZM117.898 24.6459C117.898 26.5328 116.615 27.0253 115.768 27.0253C114.92 27.0253 113.632 26.5328 113.632 24.6459C113.632 23.9954 113.636 22.4766 113.636 22.4766C113.636 22.4766 113.632 20.9231 113.632 20.3C113.632 18.4112 114.9 17.9304 115.768 17.9304C116.635 17.9304 117.898 18.4112 117.898 20.3V24.6459Z" fill="#F4F4F4"/>
<path fill-rule="evenodd" clip-rule="evenodd" d="M106.132 28.6453H100.727V20.6275C100.727 19.5621 99.7263 18.3786 98.2438 18.3786C96.7612 18.3786 95.6567 19.5621 95.6567 20.6275L95.6651 28.6453H90.2646L90.2679 16.4369L95.6651 16.433C95.6651 16.433 95.6567 17.4162 95.6651 17.7157C96.8384 16.5785 98.384 15.9228 100.005 15.8745C100.046 15.8732 100.087 15.8726 100.129 15.8726C102.198 15.8726 106.163 17.2649 106.137 22.0041C106.129 22.8608 106.132 28.6453 106.132 28.6453Z" fill="#F4F4F4"/>
<path fill-rule="evenodd" clip-rule="evenodd" d="M82.8878 25.1193C82.8878 27.3526 81.44 27.8497 80.6389 27.8497C79.8379 27.8497 78.3611 27.3526 78.3611 25.1193C78.3611 24.4479 78.3694 22.5976 78.3694 22.5976C78.3694 22.5976 88.6148 22.6009 88.6148 22.5976C88.6148 18.8103 85.0139 15.6733 80.5888 15.6733C76.1636 15.6733 72.5781 18.7431 72.5781 22.5265C72.5781 26.31 76.1662 29.3849 80.5888 29.3849C84.2591 29.3849 87.3586 27.2573 88.3088 24.3723L82.8827 24.3768C82.8827 24.3768 82.8878 24.431 82.8878 25.1193ZM78.7218 18.2981C79.1499 17.5471 79.9304 17.1896 80.637 17.1857C80.6363 17.1857 80.6363 17.185 80.6357 17.185H80.6389C80.6389 17.185 80.6376 17.1857 80.637 17.1857C81.3487 17.1896 82.124 17.5471 82.549 18.2981C82.8942 18.9114 82.9142 19.6264 82.9058 20.6945H78.365C78.3553 19.6264 78.3765 18.9127 78.7218 18.2981Z" fill="#F4F4F4"/>
<path fill-rule="evenodd" clip-rule="evenodd" d="M73.2966 16.4616H70.3508L70.354 28.6485H64.9053L64.9079 16.4616H61.9512V14.6498H64.9098L64.9053 12.1777H70.3508V14.6479H73.2966V16.4616Z" fill="#F4F4F4"/>
<path fill-rule="evenodd" clip-rule="evenodd" d="M61.92 28.6453H56.515V20.6275C56.515 19.5621 55.5121 18.3786 54.0308 18.3786C52.5496 18.3786 51.447 19.5621 51.447 20.6275L51.4528 28.6453H46.0504L46.0459 16.4369L51.4521 16.433C51.4521 16.433 51.4457 17.4162 51.4521 17.7157C52.6241 16.5791 54.1691 15.9234 55.7892 15.8745C55.8297 15.8732 55.8708 15.8726 55.9126 15.8726C57.9847 15.8726 61.9508 17.2649 61.9213 22.0041C61.9155 22.8608 61.92 28.6453 61.92 28.6453Z" fill="#F4F4F4"/>
<path d="M43.0531 10.2847H37.6006V14.0381H43.0531V10.2847Z" fill="#F4F4F4"/>
<path d="M43.0532 16.4395H37.6123V28.6485H43.0532V16.4395Z" fill="#F4F4F4"/>
<path fill-rule="evenodd" clip-rule="evenodd" d="M34.4967 10.2871V28.648H28.9137L21.074 15.8459V28.648H15.4736L15.4762 10.2871H21.1094L28.9104 23.0879L28.9059 10.2871H34.4967Z" fill="#F4F4F4"/>
</g>
<defs>
<clipPath id="clip0_1625_256">
<rect width="156" height="39" fill="white"/>
</clipPath>
</defs>
</svg>
