<svg width="194" height="36" viewBox="0 0 194 36" fill="none" xmlns="http://www.w3.org/2000/svg">
<path d="M0 28.4904V8.31046H14.8124V12.5158H4.92817V16.6082H13.1975V20.6442H4.92817V28.4904H0Z" fill="#F4F4F4"/>
<path d="M15.7638 28.4904V14.0399H20.1073V16.2978H20.1908C21.156 14.642 22.4553 13.8141 24.0888 13.8141C24.5157 13.8141 24.8127 13.8517 24.9797 13.927V17.8783H24.8684C23.4577 17.6713 22.344 17.9254 21.5272 18.6404C20.7105 19.3365 20.3022 20.4561 20.3022 21.999V28.4904H15.7638Z" fill="#F4F4F4"/>
<path d="M30.2188 28.8573C28.7524 28.8573 27.5737 28.4716 26.6827 27.7002C25.7918 26.9287 25.3463 25.8468 25.3463 24.4544C25.3463 22.9868 25.8289 21.9237 26.7941 21.2652C27.7593 20.5878 29.0958 20.1362 30.8035 19.9104C32.1956 19.7411 33.1422 19.5529 33.6434 19.3459C34.1631 19.1202 34.423 18.7721 34.423 18.3017C34.423 17.2668 33.7733 16.7494 32.474 16.7494C31.0819 16.7494 30.3116 17.3703 30.1631 18.6121H25.9867C26.0423 17.1821 26.6178 15.9967 27.7129 15.0559C28.8266 14.1151 30.4044 13.6447 32.4462 13.6447C34.488 13.6447 36.0286 14.0399 37.0681 14.8301C38.2746 15.7145 38.8779 17.088 38.8779 18.9508V26.2325C38.8779 27.3803 39.0449 28.0671 39.379 28.2929V28.4904H34.9799C34.7942 28.227 34.6365 27.6908 34.5065 26.8817H34.4509C33.5413 28.1988 32.1306 28.8573 30.2188 28.8573ZM31.6666 25.9221C32.5204 25.9221 33.2072 25.6869 33.7269 25.2165C34.2652 24.7273 34.5344 24.0969 34.5344 23.3255V21.6038C34.0889 21.8296 33.3093 22.0836 32.1956 22.3659C31.2861 22.5729 30.6457 22.8175 30.2744 23.0997C29.9032 23.3819 29.7176 23.7865 29.7176 24.3133C29.7176 25.3858 30.3672 25.9221 31.6666 25.9221Z" fill="#F4F4F4"/>
<path d="M41.0779 28.4904V14.0399H45.4213V16.1002H45.5049C46.4886 14.4444 47.9272 13.6165 49.8205 13.6165C51.6952 13.6165 53.0317 14.4632 53.8299 16.1567H53.8855C54.9621 14.4632 56.4564 13.6165 58.3682 13.6165C59.946 13.6165 61.1432 14.1151 61.9599 15.1124C62.7952 16.0908 63.2129 17.4173 63.2129 19.0919V28.4904H58.6745V19.9104C58.6745 18.2734 58.0063 17.455 56.6698 17.455C55.9645 17.455 55.4076 17.7278 54.9992 18.2734C54.6094 18.8003 54.4146 19.5059 54.4146 20.3902V28.4904H49.8762V19.9104C49.8762 18.2734 49.208 17.455 47.8715 17.455C47.1662 17.455 46.6093 17.7278 46.2009 18.2734C45.8111 18.8003 45.6162 19.5059 45.6162 20.3902V28.4904H41.0779Z" fill="#F4F4F4"/>
<path d="M72.2378 28.9138C69.9362 28.9138 68.0893 28.1988 66.6971 26.7688C65.3235 25.32 64.6368 23.476 64.6368 21.2369C64.6368 19.0543 65.3143 17.2386 66.6693 15.7898C68.0429 14.3409 69.8062 13.6165 71.9594 13.6165C73.9084 13.6165 75.5326 14.2186 76.8319 15.4228C78.5396 17.0034 79.3749 19.3459 79.3377 22.4506H69.0916C69.2401 23.4478 69.5835 24.2287 70.1218 24.7931C70.6601 25.3388 71.384 25.6116 72.2935 25.6116C73.4629 25.6116 74.2518 25.1318 74.6602 24.1722H79.0872C78.753 25.5646 77.9549 26.7029 76.6927 27.5873C75.449 28.4716 73.9641 28.9138 72.2378 28.9138ZM69.1194 19.7129H74.7437C74.6694 18.8473 74.3817 18.1605 73.8806 17.6525C73.398 17.1445 72.7854 16.8905 72.0429 16.8905C70.4281 16.8905 69.4536 17.8313 69.1194 19.7129Z" fill="#F4F4F4"/>
<path d="M87.6862 28.6316C85.6537 28.6316 84.5678 27.5308 84.5678 26.0632C84.5678 24.906 84.9855 23.5795 85.4031 22.3659L90.3034 8.50803L88.438 8.33868V8H93.7281L90.2478 17.9065L90.3313 17.9348C91.4728 16.326 92.6979 14.943 94.5634 14.943C96.0112 14.943 97.1528 15.9309 97.1528 17.9065C97.1528 22.4223 92.1689 28.6316 87.6862 28.6316ZM88.438 28.1518C90.4427 28.1518 93.6724 19.8257 93.8673 17.3703C93.9508 16.3542 93.7003 16.0438 93.3105 16.0438C92.4195 16.0438 90.4983 17.5396 89.3289 20.4749C88.3544 22.8739 87.4913 25.4705 87.4913 26.8817C87.4913 27.6155 87.6305 28.1518 88.438 28.1518Z" fill="#F4F4F4"/>
<path d="M93.5567 35.0666C92.1646 35.0666 91.2736 34.3045 91.2736 33.3449C91.2736 32.724 91.7191 31.962 92.5822 31.962C93.8908 31.962 94.0857 33.7965 94.9767 33.7965C97.037 33.7965 99.4315 32.1877 100.239 30.1274C100.49 27.3615 100.434 24.5673 100.378 22.5352C100.322 20.5031 100.322 19.0073 100.155 17.3138C100.128 17.1163 100.044 17.0034 99.9048 17.0034C99.5707 17.0034 98.5684 18.1323 97.3433 19.7411L97.1206 19.5435C98.7354 16.7494 100.851 14.8301 101.993 14.8301C102.689 14.8301 103.162 15.3664 103.302 16.4107C103.385 16.9751 103.552 18.6968 103.608 20.616C103.664 22.4788 103.719 24.398 103.357 27.2204C105.334 24.3415 107.005 21.6603 107.005 19.0637C107.005 17.4267 106.197 17.2292 106.197 16.0438C106.197 15.2817 106.838 14.8301 107.422 14.8301C108.397 14.8301 108.926 15.5075 108.926 16.4389C108.926 17.2292 108.647 18.6121 108.118 19.8257C106.949 22.5917 105.501 24.9907 102.773 28.7727C99.8213 32.8651 95.6171 35.0666 93.5567 35.0666Z" fill="#F4F4F4"/>
<path d="M114.661 28.4904V8.31046H129.473V12.5158H119.589V16.6082H127.859V20.6442H119.589V28.4904H114.661Z" fill="#F4F4F4"/>
<path d="M130.425 28.4904V14.0399H134.768V16.2978H134.852C135.817 14.642 137.116 13.8141 138.75 13.8141C139.177 13.8141 139.474 13.8517 139.641 13.927V17.8783H139.529C138.119 17.6713 137.005 17.9254 136.188 18.6404C135.372 19.3365 134.963 20.4561 134.963 21.999V28.4904H130.425Z" fill="#F4F4F4"/>
<path d="M144.88 28.8573C143.413 28.8573 142.235 28.4716 141.344 27.7002C140.453 26.9287 140.007 25.8468 140.007 24.4544C140.007 22.9868 140.49 21.9237 141.455 21.2652C142.42 20.5878 143.757 20.1362 145.465 19.9104C146.857 19.7411 147.803 19.5529 148.304 19.3459C148.824 19.1202 149.084 18.7721 149.084 18.3017C149.084 17.2668 148.434 16.7494 147.135 16.7494C145.743 16.7494 144.973 17.3703 144.824 18.6121H140.648C140.703 17.1821 141.279 15.9967 142.374 15.0559C143.488 14.1151 145.065 13.6447 147.107 13.6447C149.149 13.6447 150.69 14.0399 151.729 14.8301C152.936 15.7145 153.539 17.088 153.539 18.9508V26.2325C153.539 27.3803 153.706 28.0671 154.04 28.2929V28.4904H149.641C149.455 28.227 149.298 27.6908 149.168 26.8817H149.112C148.202 28.1988 146.792 28.8573 144.88 28.8573ZM146.328 25.9221C147.181 25.9221 147.868 25.6869 148.388 25.2165C148.926 24.7273 149.195 24.0969 149.195 23.3255V21.6038C148.75 21.8296 147.97 22.0836 146.857 22.3659C145.947 22.5729 145.307 22.8175 144.936 23.0997C144.564 23.3819 144.379 23.7865 144.379 24.3133C144.379 25.3858 145.028 25.9221 146.328 25.9221Z" fill="#F4F4F4"/>
<path d="M155.739 28.4904V14.0399H160.082V16.1002H160.166C161.15 14.4444 162.588 13.6165 164.482 13.6165C166.356 13.6165 167.693 14.4632 168.491 16.1567H168.547C169.623 14.4632 171.117 13.6165 173.029 13.6165C174.607 13.6165 175.804 14.1151 176.621 15.1124C177.456 16.0908 177.874 17.4173 177.874 19.0919V28.4904H173.336V19.9104C173.336 18.2734 172.667 17.455 171.331 17.455C170.626 17.455 170.069 17.7278 169.66 18.2734C169.271 18.8003 169.076 19.5059 169.076 20.3902V28.4904H164.537V19.9104C164.537 18.2734 163.869 17.455 162.533 17.455C161.827 17.455 161.27 17.7278 160.862 18.2734C160.472 18.8003 160.277 19.5059 160.277 20.3902V28.4904H155.739Z" fill="#F4F4F4"/>
<path d="M186.899 28.9138C184.597 28.9138 182.75 28.1988 181.358 26.7688C179.985 25.32 179.298 23.476 179.298 21.2369C179.298 19.0543 179.975 17.2386 181.33 15.7898C182.704 14.3409 184.467 13.6165 186.62 13.6165C188.569 13.6165 190.194 14.2186 191.493 15.4228C193.201 17.0034 194.036 19.3459 193.999 22.4506H183.753C183.901 23.4478 184.245 24.2287 184.783 24.7931C185.321 25.3388 186.045 25.6116 186.955 25.6116C188.124 25.6116 188.913 25.1318 189.321 24.1722H193.748C193.414 25.5646 192.616 26.7029 191.354 27.5873C190.11 28.4716 188.625 28.9138 186.899 28.9138ZM183.781 19.7129H189.405C189.331 18.8473 189.043 18.1605 188.542 17.6525C188.059 17.1445 187.446 16.8905 186.704 16.8905C185.089 16.8905 184.115 17.8313 183.781 19.7129Z" fill="#F4F4F4"/>
</svg>
